<svg width="56" height="56" viewBox="0 0 56 56" fill="none" xmlns="http://www.w3.org/2000/svg">
<path d="M38.6781 0H17.3219C7.77481 0 0 7.77481 0 17.3219V38.6781C0 48.2341 7.77481 56 17.3219 56H38.6781C48.2341 56 56 48.2252 56 38.6781V17.3219C56 7.77481 48.2341 0 38.6781 0ZM53.07 17.3219V38.6781C53.07 46.6132 46.6132 53.0611 38.687 53.0611H17.3219C9.38677 53.0611 2.93893 46.6043 2.93893 38.6781V17.3219C2.93893 9.38677 9.39568 2.93893 17.3219 2.93893H38.6781C46.6132 2.93893 53.07 9.38677 53.07 17.3219Z" fill="#333333"/>
<path d="M35.3561 13.4479L31.0635 13.3588C29.3803 13.3232 27.7505 13.9555 26.5304 15.1489C25.3103 16.3423 24.6424 17.9365 24.6424 19.6464V23.7164H20.6525C20.4922 23.7164 20.3586 23.8499 20.3586 24.0102V29.1222C20.3586 29.2825 20.4922 29.4161 20.6525 29.4161H24.6424V42.3563C24.6424 42.5166 24.7759 42.6502 24.9362 42.6502H30.2174C30.3777 42.6502 30.5113 42.5166 30.5113 42.3563V29.4161H34.5279C34.6793 29.4161 34.8039 29.3092 34.8217 29.1578L35.4897 24.0459C35.4986 23.9657 35.4719 23.8767 35.4184 23.8143C35.365 23.752 35.2848 23.7164 35.1958 23.7164H30.5113V21.1337C30.5113 21.1248 30.4044 19.8779 31.0546 19.1566C31.3574 18.827 31.767 18.6667 32.3192 18.6667H35.3561C35.5164 18.6667 35.65 18.5331 35.65 18.3728V13.7596C35.65 13.5904 35.5164 13.4568 35.3561 13.4479Z" fill="#333333"/>
</svg>
