<svg width="56" height="56" viewBox="0 0 56 56" fill="none" xmlns="http://www.w3.org/2000/svg">
<path d="M38.6781 0H17.3219C7.77481 0 0 7.77481 0 17.3219V38.6781C0 48.2341 7.77481 56 17.3219 56H38.6781C48.2341 56 56 48.2252 56 38.6781V17.3219C56 7.77481 48.2341 0 38.6781 0ZM53.07 17.3219V38.6781C53.07 46.6132 46.6132 53.0611 38.687 53.0611H17.3219C9.38677 53.0611 2.93893 46.6043 2.93893 38.6781V17.3219C2.93893 9.38677 9.39568 2.93893 17.3219 2.93893H38.6781C46.6132 2.93893 53.07 9.38677 53.07 17.3219Z" fill="white"/>
<path d="M35.3563 13.4479L31.0637 13.3588C29.3805 13.3232 27.7507 13.9555 26.5306 15.1489C25.3105 16.3423 24.6425 17.9365 24.6425 19.6464V23.7164H20.6527C20.4924 23.7164 20.3588 23.8499 20.3588 24.0102V29.1222C20.3588 29.2825 20.4924 29.4161 20.6527 29.4161H24.6425V42.3563C24.6425 42.5166 24.7761 42.6502 24.9364 42.6502H30.2176C30.3779 42.6502 30.5115 42.5166 30.5115 42.3563V29.4161H34.528C34.6794 29.4161 34.8041 29.3092 34.8219 29.1578L35.4899 24.0459C35.4988 23.9657 35.4721 23.8767 35.4186 23.8143C35.3652 23.752 35.285 23.7164 35.196 23.7164H30.5115V21.1337C30.5115 21.1248 30.4046 19.8779 31.0548 19.1566C31.3576 18.827 31.7672 18.6667 32.3194 18.6667H35.3563C35.5166 18.6667 35.6502 18.5331 35.6502 18.3728V13.7596C35.6502 13.5904 35.5166 13.4568 35.3563 13.4479Z" fill="white"/>
</svg>
