<svg width="56" height="56" viewBox="0 0 56 56" fill="none" xmlns="http://www.w3.org/2000/svg">
<path d="M38.6781 0H17.3219C7.77481 0 0 7.77481 0 17.3219V38.6781C0 48.2341 7.77481 56 17.3219 56H38.6781C48.2341 56 56 48.2252 56 38.6781V17.3219C56 7.77481 48.2341 0 38.6781 0ZM53.0611 17.3219V38.6781C53.0611 46.6132 46.6043 53.0611 38.6781 53.0611H17.3219C9.38677 53.0611 2.93893 46.6043 2.93893 38.6781V17.3219C2.93893 9.38677 9.39568 2.93893 17.3219 2.93893H38.6781C46.6132 2.93893 53.0611 9.38677 53.0611 17.3219Z" fill="#333333"/>
<path d="M33.6641 14.6323H22.3359C18.0878 14.6323 14.6323 18.0878 14.6323 22.3359V33.6641C14.6323 37.9122 18.0878 41.3677 22.3359 41.3677H33.6641C37.9122 41.3677 41.3677 37.9122 41.3677 33.6641V22.3359C41.3677 18.0878 37.9122 14.6323 33.6641 14.6323ZM38.6425 33.6641C38.6425 36.4071 36.416 38.6336 33.673 38.6336H22.3359C19.5929 38.6336 17.3664 36.4071 17.3664 33.6641V22.3359C17.3664 19.5929 19.5929 17.3664 22.3359 17.3664H33.6641C36.4071 17.3664 38.6336 19.5929 38.6336 22.3359V33.6641H38.6425Z" fill="#333333"/>
<path d="M28.0001 21.793C24.5803 21.793 21.7927 24.5805 21.7927 28.0003C21.7927 31.4202 24.5803 34.2077 28.0001 34.2077C31.4199 34.2077 34.2075 31.4202 34.2075 28.0003C34.2075 24.5805 31.4199 21.793 28.0001 21.793ZM28.0001 31.3578C26.1477 31.3578 24.6426 29.8528 24.6426 28.0003C24.6426 26.1479 26.1477 24.6428 28.0001 24.6428C29.8525 24.6428 31.3576 26.1479 31.3576 28.0003C31.3576 29.8528 29.8525 31.3578 28.0001 31.3578Z" fill="#333333"/>
<path d="M34.9556 19.103C33.9403 19.103 33.1121 19.9313 33.1121 20.9465C33.1121 21.9618 33.9403 22.79 34.9556 22.79C35.9708 22.79 36.7991 21.9618 36.7991 20.9465C36.7991 19.9313 35.9708 19.103 34.9556 19.103Z" fill="#333333"/>
</svg>
