<svg width="56" height="56" viewBox="0 0 56 56" fill="none" xmlns="http://www.w3.org/2000/svg">
<path d="M38.6781 0H17.3219C7.77481 0 0 7.77481 0 17.3219V38.6781C0 48.2341 7.77481 56 17.3219 56H38.6781C48.2341 56 56 48.2252 56 38.6781V17.3219C56 7.77481 48.2341 0 38.6781 0ZM53.0611 17.3219V38.6781C53.0611 46.6132 46.6043 53.0611 38.6781 53.0611H17.3219C9.38677 53.0611 2.93893 46.6043 2.93893 38.6781V17.3219C2.93893 9.38677 9.39568 2.93893 17.3219 2.93893H38.6781C46.6132 2.93893 53.0611 9.38677 53.0611 17.3219Z" fill="white"/>
<path d="M33.6641 14.6323H22.3359C18.0878 14.6323 14.6323 18.0878 14.6323 22.3359V33.6641C14.6323 37.9122 18.0878 41.3677 22.3359 41.3677H33.6641C37.9122 41.3677 41.3677 37.9122 41.3677 33.6641V22.3359C41.3677 18.0878 37.9122 14.6323 33.6641 14.6323ZM38.6425 33.6641C38.6425 36.4071 36.416 38.6336 33.673 38.6336H22.3359C19.5929 38.6336 17.3664 36.4071 17.3664 33.6641V22.3359C17.3664 19.5929 19.5929 17.3664 22.3359 17.3664H33.6641C36.4071 17.3664 38.6336 19.5929 38.6336 22.3359V33.6641H38.6425Z" fill="white"/>
<path d="M28 21.7927C24.5802 21.7927 21.7927 24.5803 21.7927 28.0001C21.7927 31.4199 24.5802 34.2075 28 34.2075C31.4199 34.2075 34.2074 31.4199 34.2074 28.0001C34.2074 24.5803 31.4199 21.7927 28 21.7927ZM28 31.3576C26.1476 31.3576 24.6425 29.8525 24.6425 28.0001C24.6425 26.1477 26.1476 24.6426 28 24.6426C29.8525 24.6426 31.3575 26.1477 31.3575 28.0001C31.3575 29.8525 29.8525 31.3576 28 31.3576Z" fill="white"/>
<path d="M34.9555 19.103C33.9402 19.103 33.112 19.9313 33.112 20.9465C33.112 21.9618 33.9402 22.79 34.9555 22.79C35.9708 22.79 36.799 21.9618 36.799 20.9465C36.799 19.9313 35.9708 19.103 34.9555 19.103Z" fill="white"/>
</svg>
