<svg width="206" height="31" viewBox="0 0 206 31" fill="none" xmlns="http://www.w3.org/2000/svg">
<path d="M8.91638 1.409C8.91638 2.18686 9.58105 2.818 10.4017 2.818C11.2224 2.818 11.8871 2.18686 11.8871 1.409C11.8871 0.631135 11.2224 0 10.4017 0C9.58105 0 8.91638 0.631135 8.91638 1.409Z" fill="#333333"/>
<path d="M25.2638 0C24.4431 0 23.7784 0.631135 23.7784 1.409C23.7784 2.18686 24.4431 2.818 25.2638 2.818C26.0845 2.818 26.7491 2.18686 26.7491 1.409C26.7491 0.631135 26.0845 0 25.2638 0Z" fill="#333333"/>
<path d="M32.6927 9.86302C32.6927 9.08516 32.028 8.45402 31.2073 8.45402C30.3866 8.45402 29.722 7.82289 29.722 7.04502C29.722 6.26716 29.0573 5.63602 28.2366 5.63602H26.7513H25.2659C24.4452 5.63602 23.7806 5.00489 23.7806 4.22702C23.7806 3.44916 23.1159 2.81802 22.2952 2.81802C21.4745 2.81802 20.8099 3.44916 20.8099 4.22702C20.8099 5.00489 20.1452 5.63602 19.3245 5.63602H17.8392H16.3538C15.5331 5.63602 14.8685 5.00489 14.8685 4.22702C14.8685 3.44916 14.2038 2.81802 13.3831 2.81802C12.5624 2.81802 11.8978 3.44916 11.8978 4.22702C11.8978 5.00489 11.2331 5.63602 10.4124 5.63602H8.92707H7.44171C6.62103 5.63602 5.95636 6.26716 5.95636 7.04502C5.95636 7.82289 5.2917 8.45402 4.47101 8.45402C3.65033 8.45402 2.98566 9.08516 2.98566 9.86302C2.98566 10.6409 2.32099 11.272 1.50031 11.272C0.664668 11.274 0 11.9032 0 12.683V14.092V16.91V19.728V22.546V23.955C0 24.7329 0.664668 25.364 1.48535 25.364C2.30603 25.364 2.9707 25.9952 2.9707 26.773C2.9707 27.5509 3.63537 28.182 4.45605 28.182C5.27674 28.182 5.9414 28.8132 5.9414 29.591C5.9414 30.3689 6.60607 31 7.42675 31C8.24744 31 8.91211 30.3689 8.91211 29.591C8.91211 28.8132 9.57677 28.182 10.3975 28.182H11.8828H14.8556H17.8285H20.8013H23.7742H25.2595C26.0802 28.182 26.7449 28.8132 26.7449 29.591C26.7449 30.3689 27.4095 31 28.2302 31C29.0509 31 29.7156 30.3689 29.7156 29.591C29.7156 28.8132 30.3802 28.182 31.2009 28.182C32.0216 28.182 32.6863 27.5509 32.6863 26.773C32.6863 25.9952 33.3509 25.364 34.1716 25.364C34.9923 25.364 35.657 24.7329 35.657 23.955V22.546V19.728V16.91V14.092V12.683C35.657 11.9052 34.9923 11.274 34.1716 11.274C33.3595 11.274 32.6927 10.6429 32.6927 9.86302ZM32.6927 16.91V19.728V21.137C32.6927 21.9149 32.028 22.546 31.2073 22.546C30.3866 22.546 29.722 23.1772 29.722 23.955C29.722 24.7329 29.0573 25.364 28.2366 25.364H26.7513H23.7784H20.8056H17.8328H14.8599H11.8892H8.91638H7.43103C6.61035 25.364 5.94568 24.7329 5.94568 23.955C5.94568 23.1772 5.28101 22.546 4.46033 22.546C3.63964 22.546 2.97498 21.9149 2.97498 21.137V19.728V16.91V15.501C2.97498 14.7232 3.63964 14.092 4.46033 14.092C5.28101 14.092 5.94568 13.4609 5.94568 12.683C5.94568 11.9052 6.61035 11.274 7.43103 11.274C8.25171 11.274 8.91638 10.6429 8.91638 9.86503C8.91638 9.08717 9.58105 8.45603 10.4017 8.45603H11.8871H14.8599H17.8328H20.8056H23.7784H25.2638C26.0845 8.45603 26.7491 9.08717 26.7491 9.86503C26.7491 10.6429 27.4138 11.274 28.2345 11.274C29.0552 11.274 29.7198 11.9052 29.7198 12.683C29.7198 13.4609 30.3845 14.092 31.2052 14.092C32.0259 14.092 32.6905 14.7232 32.6905 15.501V16.91H32.6927Z" fill="#333333"/>
<path d="M28.2344 14.6548C27.4137 14.6548 26.7491 14.0237 26.7491 13.2458C26.7491 12.4679 26.0844 11.8368 25.2637 11.8368H23.7784H20.8055H17.8327H14.8599H11.8892H10.4038C9.58312 11.8368 8.91845 12.4679 8.91845 13.2458C8.91845 14.0237 8.25379 14.6548 7.4331 14.6548C6.61242 14.6548 5.94775 15.2859 5.94775 16.0638V17.4728V18.8818C5.94775 19.6597 6.61242 20.2908 7.4331 20.2908C8.25379 20.2908 8.91845 20.9219 8.91845 21.6998C8.91845 22.4777 9.58312 23.1088 10.4038 23.1088H11.8892H14.862H17.8348H20.8077H23.7805H25.2659C26.0865 23.1088 26.7512 22.4777 26.7512 21.6998C26.7512 20.9219 27.4159 20.2908 28.2366 20.2908C29.0572 20.2908 29.7219 19.6597 29.7219 18.8818V17.4728V16.0638C29.7219 15.2859 29.0551 14.6548 28.2344 14.6548ZM14.8599 17.4728V18.8818C14.8599 19.6597 14.1952 20.2908 13.3745 20.2908C12.5538 20.2908 11.8892 19.6597 11.8892 18.8818V17.4728V16.0638C11.8892 15.2859 12.5538 14.6548 13.3745 14.6548C14.1952 14.6548 14.8599 15.2859 14.8599 16.0638V17.4728ZM23.7762 17.4728V18.8818C23.7762 19.6597 23.1116 20.2908 22.2909 20.2908C21.4702 20.2908 20.8055 19.6597 20.8055 18.8818V17.4728V16.0638C20.8055 15.2859 21.4702 14.6548 22.2909 14.6548C23.1116 14.6548 23.7762 15.2859 23.7762 16.0638V17.4728Z" fill="#333333"/>
<path d="M52.5493 21.2737C52.5493 21.0787 52.4831 20.9199 52.3506 20.7953C52.2181 20.6707 51.9873 20.5561 51.656 20.4496C51.3247 20.3431 50.8866 20.2365 50.3395 20.13C49.7924 20.0235 49.0935 19.8828 48.2429 19.7039C47.4115 19.527 46.7233 19.3039 46.1741 19.0386C45.627 18.7733 45.1867 18.4617 44.8576 18.108C44.5263 17.7542 44.2955 17.3502 44.163 16.8979C44.0305 16.4457 43.9642 15.9533 43.9642 15.4206C43.9642 14.888 44.0967 14.3654 44.3617 13.8508C44.6268 13.3363 45.0093 12.88 45.5094 12.48C46.0095 12.08 46.6186 11.7584 47.3367 11.5092C48.0548 11.2619 48.8755 11.1373 49.8009 11.1373C50.7263 11.1373 51.5513 11.2358 52.2801 11.4308C53.0067 11.6258 53.6265 11.883 54.1351 12.2026C54.6459 12.5222 55.0413 12.89 55.3256 13.3061C55.6098 13.7222 55.7701 14.1443 55.8064 14.5704C55.8257 14.7654 55.7551 14.9342 55.5948 15.0749C55.4346 15.2176 55.2508 15.2879 55.0434 15.2879H52.8614C52.5771 15.2879 52.3655 15.2397 52.2245 15.1412C52.0834 15.0447 51.9274 14.9322 51.7564 14.8096C51.5855 14.685 51.3589 14.5744 51.0768 14.4779C50.7926 14.3814 50.3694 14.3312 49.803 14.3312C49.2367 14.3312 48.7366 14.4116 48.3027 14.5704C47.8689 14.7292 47.6509 15.0146 47.6509 15.4226C47.6509 15.6176 47.7022 15.7824 47.8069 15.9151C47.9095 16.0477 48.1082 16.1683 48.401 16.2748C48.6938 16.3814 49.0999 16.4919 49.6192 16.6065C50.1386 16.7211 50.8139 16.8598 51.6453 17.0185C53.3251 17.3562 54.5113 17.8828 55.1995 18.6024C55.8876 19.32 56.2339 20.2124 56.2339 21.2757C56.2339 21.8083 56.0928 22.3269 55.8086 22.8314C55.5243 23.3379 55.114 23.7902 54.5754 24.1882C54.0368 24.5881 53.3764 24.9057 52.5921 25.1469C51.8077 25.3861 50.9251 25.5067 49.9441 25.5067C48.9439 25.5067 48.0612 25.3962 47.2961 25.1751C46.531 24.954 45.8834 24.6645 45.3555 24.3108C44.8276 23.957 44.4216 23.557 44.1373 23.1128C43.8531 22.6706 43.7035 22.2345 43.6842 21.8083C43.665 21.6134 43.7355 21.4445 43.8958 21.3038C44.0561 21.1611 44.2399 21.0908 44.4472 21.0908H46.6293C46.9135 21.0908 47.1251 21.1531 47.2662 21.2777C47.4072 21.4023 47.5675 21.543 47.7471 21.7038C47.9266 21.8626 48.1766 22.0053 48.4972 22.1299C48.8178 22.2546 49.2987 22.3169 49.942 22.3169C50.2262 22.3169 50.5169 22.2988 50.8203 22.2626C51.1217 22.2264 51.4017 22.1701 51.656 22.0897C51.9103 22.0093 52.124 21.9028 52.2929 21.7701C52.4639 21.6315 52.5493 21.4686 52.5493 21.2737Z" fill="#333333"/>
<path d="M70.8223 12.7955C71.2754 12.281 71.8225 11.887 72.4658 11.6117C73.107 11.3363 73.7781 11.1996 74.4769 11.1996C75.6674 11.1996 76.6398 11.4087 77.3942 11.8247C78.1486 12.2408 78.7449 12.7875 79.1788 13.4608C79.4245 13.1071 79.7259 12.7875 80.0849 12.5021C80.444 12.2187 80.8265 11.9795 81.2326 11.7845C81.6387 11.5896 82.0576 11.4428 82.4936 11.3463C82.9274 11.2499 83.3527 11.1996 83.7673 11.1996C84.8445 11.1996 85.74 11.3685 86.4581 11.7041C87.1762 12.0418 87.7553 12.494 88.1999 13.0609C88.6423 13.6297 88.9543 14.289 89.1338 15.0427C89.3133 15.7965 89.4031 16.5904 89.4031 17.4245V24.5821C89.4031 24.7771 89.3283 24.9459 89.1766 25.0886C89.0248 25.2313 88.8453 25.3017 88.638 25.3017H86.4858C86.2785 25.3017 86.099 25.2313 85.9473 25.0886C85.7955 24.9459 85.7207 24.7791 85.7207 24.5821V17.5592C85.7207 16.3532 85.4749 15.511 84.9834 15.0327C84.4918 14.5543 83.8037 14.3151 82.9146 14.3151C82.158 14.3151 81.5126 14.5462 80.974 15.0065C80.4354 15.4688 80.1469 16.2748 80.1106 17.4286V24.5861C80.1106 24.7811 80.0358 24.9499 79.884 25.0926C79.7323 25.2353 79.5528 25.3057 79.3455 25.3057H77.1955C76.9881 25.3057 76.8086 25.2353 76.6569 25.0926C76.5051 24.9499 76.4303 24.7831 76.4303 24.5861V17.5592C76.4303 16.3532 76.1846 15.511 75.693 15.0327C75.2015 14.5543 74.5133 14.3151 73.6242 14.3151C72.8505 14.3151 72.188 14.5583 71.6409 15.0467C71.0938 15.5352 70.8202 16.3733 70.8202 17.5612V24.5841C70.8202 24.7791 70.7454 24.9479 70.5937 25.0906C70.4419 25.2333 70.2624 25.3037 70.0551 25.3037H67.9029C67.6956 25.3037 67.5161 25.2333 67.3644 25.0906C67.2126 24.9479 67.1378 24.7811 67.1378 24.5841V12.1845C67.1378 11.9895 67.2126 11.8207 67.3644 11.678C67.5161 11.5353 67.6935 11.4649 67.9029 11.4649H70.0551C70.2624 11.4649 70.4419 11.5353 70.5937 11.678C70.7454 11.8207 70.8202 11.9895 70.8202 12.1845V12.7955H70.8223Z" fill="#333333"/>
<path d="M101.149 25.6293C100.563 25.6293 100.04 25.5771 99.5761 25.4705C99.1123 25.364 98.7063 25.2314 98.3579 25.0706C98.0074 24.9118 97.7103 24.7389 97.4667 24.552C97.2209 24.3651 97.0222 24.1922 96.8726 24.0334V29.6996C96.8726 29.8945 96.7978 30.0634 96.646 30.2061C96.4943 30.3468 96.3148 30.4191 96.1075 30.4191H93.9553C93.748 30.4191 93.5685 30.3488 93.4167 30.2061C93.265 30.0634 93.1902 29.8945 93.1902 29.6996V12.2469C93.1902 12.0519 93.265 11.883 93.4167 11.7403C93.5685 11.5976 93.7459 11.5273 93.9553 11.5273H96.1075C96.3148 11.5273 96.4943 11.5976 96.646 11.7403C96.7978 11.883 96.8726 12.0519 96.8726 12.2469V12.8579C97.0243 12.6991 97.2209 12.5262 97.4667 12.3393C97.7125 12.1524 98.0096 11.9795 98.3579 11.8207C98.7063 11.662 99.1123 11.5273 99.5761 11.4208C100.038 11.3142 100.563 11.262 101.149 11.262C102.094 11.262 102.949 11.4348 103.712 11.7805C104.477 12.1263 105.129 12.5886 105.667 13.1634C106.206 13.7403 106.631 14.4056 106.941 15.1593C107.253 15.9131 107.426 16.699 107.464 17.513C107.484 17.7783 107.492 18.0899 107.492 18.4436C107.492 18.7994 107.482 19.1089 107.464 19.3743C107.426 20.1903 107.253 20.9742 106.941 21.728C106.629 22.4817 106.204 23.147 105.667 23.7239C105.129 24.3007 104.477 24.761 103.712 25.1067C102.949 25.4565 102.094 25.6293 101.149 25.6293ZM103.784 19.1914C103.84 18.6949 103.84 18.1984 103.784 17.702C103.671 16.5502 103.293 15.7201 102.652 15.2136C102.008 14.7091 101.226 14.4558 100.301 14.4558C99.3752 14.4558 98.5951 14.7131 97.9647 15.2277C97.3321 15.7422 96.9687 16.4779 96.8747 17.4366C96.8362 17.702 96.8191 18.0396 96.8191 18.4477C96.8191 18.8557 96.8384 19.1934 96.8747 19.4587C96.9687 20.3813 97.3321 21.1089 97.9647 21.6395C98.5973 22.1722 99.3752 22.4375 100.301 22.4375C101.226 22.4375 102.01 22.1842 102.652 21.6797C103.293 21.1732 103.671 20.3451 103.784 19.1914Z" fill="#333333"/>
<path d="M114.56 24.6464C114.56 24.8414 114.485 25.0102 114.333 25.1529C114.182 25.2956 114.002 25.366 113.795 25.366H111.643C111.435 25.366 111.256 25.2956 111.104 25.1529C110.952 25.0102 110.878 24.8434 110.878 24.6464V7.19171C110.878 6.99674 110.952 6.8279 111.104 6.6852C111.256 6.5445 111.433 6.47214 111.643 6.47214H113.795C114.002 6.47214 114.182 6.54249 114.333 6.6852C114.485 6.8279 114.56 6.99674 114.56 7.19171V24.6464Z" fill="#333333"/>
<path d="M120.108 5.90735C118.903 5.90735 117.928 6.82591 117.928 7.95753C117.928 9.09117 118.905 10.0077 120.108 10.0077C121.314 10.0077 122.288 9.08916 122.288 7.95753C122.29 6.82591 121.314 5.90735 120.108 5.90735Z" fill="#333333"/>
<path d="M121.95 24.4716C121.95 24.6666 121.876 24.8354 121.724 24.9781C121.572 25.1208 121.393 25.1912 121.185 25.1912H119.033C118.826 25.1912 118.646 25.1208 118.495 24.9781C118.343 24.8354 118.268 24.6686 118.268 24.4716V12.074C118.268 11.879 118.343 11.7102 118.495 11.5675C118.646 11.4248 118.824 11.3544 119.033 11.3544H121.185C121.393 11.3544 121.572 11.4248 121.724 11.5675C121.876 11.7102 121.95 11.879 121.95 12.074V24.4716Z" fill="#333333"/>
<path d="M129.117 17.3421C129.078 17.6075 129.061 17.919 129.061 18.2728C129.061 18.6285 129.08 18.9381 129.117 19.2034C129.172 19.7541 129.305 20.2245 129.514 20.6124C129.721 21.0023 129.982 21.3179 130.294 21.5571C130.606 21.7963 130.95 21.9732 131.329 22.0897C131.707 22.2063 132.094 22.2626 132.489 22.2626C132.961 22.2626 133.357 22.2264 133.679 22.1561C134 22.0857 134.274 21.9832 134.5 21.8505C134.727 21.7179 134.921 21.5671 135.081 21.3983C135.242 21.2295 135.398 21.0385 135.55 20.8255C135.663 20.6667 135.795 20.5059 135.947 20.3471C136.099 20.1883 136.278 20.1079 136.486 20.1079H138.638C138.845 20.1079 139.029 20.1782 139.189 20.3209C139.349 20.4637 139.42 20.6325 139.401 20.8275C139.382 21.1993 139.24 21.6516 138.975 22.1842C138.71 22.7168 138.3 23.2254 137.742 23.7138C137.184 24.2022 136.473 24.6143 135.603 24.952C134.733 25.2876 133.694 25.4565 132.487 25.4565C131.448 25.4565 130.514 25.2916 129.683 24.964C128.852 24.6364 128.129 24.1922 127.516 23.6334C126.902 23.0746 126.419 22.4274 126.071 21.6918C125.721 20.9561 125.509 20.1802 125.434 19.3642C125.396 19.0446 125.379 18.6908 125.379 18.3009C125.379 17.911 125.398 17.5472 125.434 17.2095C125.492 16.3934 125.699 15.6136 126.058 14.8679C126.417 14.1221 126.898 13.4709 127.503 12.9121C128.108 12.3534 128.83 11.9112 129.67 11.5815C130.51 11.2539 131.45 11.0891 132.489 11.0891C133.697 11.0891 134.735 11.2579 135.605 11.5936C136.473 11.9313 137.187 12.3433 137.744 12.8317C138.302 13.3202 138.713 13.8287 138.978 14.3613C139.243 14.894 139.384 15.3462 139.403 15.7181C139.422 15.913 139.352 16.0819 139.191 16.2246C139.031 16.3673 138.847 16.4377 138.64 16.4377H136.481C136.274 16.4377 136.095 16.3573 135.943 16.1985C135.791 16.0397 135.659 15.8789 135.545 15.7201C135.394 15.507 135.238 15.3161 135.077 15.1472C134.917 14.9784 134.722 14.8277 134.496 14.695C134.269 14.5623 133.996 14.4598 133.675 14.3895C133.355 14.3191 132.957 14.2829 132.485 14.2829C132.087 14.2829 131.7 14.3412 131.324 14.4558C130.946 14.5724 130.602 14.7493 130.29 14.9885C129.978 15.2276 129.719 15.5432 129.51 15.9331C129.305 16.3231 129.174 16.7934 129.117 17.3421Z" fill="#333333"/>
<path d="M149.352 11.0891C150.39 11.0891 151.331 11.2398 152.17 11.5413C153.01 11.8428 153.737 12.2589 154.353 12.7915C154.966 13.3242 155.457 13.9453 155.825 14.6548C156.193 15.3643 156.406 16.1281 156.462 16.9422C156.481 17.1009 156.49 17.306 156.49 17.5532C156.49 17.8024 156.49 18.0497 156.49 18.2989C156.49 18.5481 156.49 18.7913 156.49 19.0305C156.49 19.2697 156.479 19.4687 156.462 19.6295C156.387 20.4456 156.169 21.2094 155.81 21.9169C155.451 22.6264 154.964 23.2435 154.35 23.7661C153.737 24.2887 153.008 24.7027 152.168 25.0042C151.328 25.3057 150.388 25.4565 149.349 25.4565C148.311 25.4565 147.37 25.3057 146.53 25.0042C145.69 24.7027 144.962 24.2907 144.348 23.7661C143.735 23.2435 143.248 22.6264 142.889 21.9169C142.53 21.2073 142.312 20.4456 142.237 19.6295C142.218 19.4707 142.203 19.2697 142.194 19.0305C142.183 18.7913 142.179 18.5481 142.179 18.2989C142.179 18.0517 142.183 17.8024 142.194 17.5532C142.203 17.306 142.218 17.1009 142.237 16.9422C142.294 16.1261 142.506 15.3643 142.874 14.6548C143.241 13.9453 143.733 13.3242 144.346 12.7915C144.96 12.2589 145.686 11.8428 146.528 11.5413C147.375 11.2398 148.313 11.0891 149.352 11.0891ZM152.78 17.0768C152.724 16.5281 152.585 16.0698 152.369 15.706C152.151 15.3422 151.882 15.0548 151.561 14.8417C151.241 14.6287 150.89 14.4819 150.514 14.4035C150.136 14.3231 149.749 14.2829 149.354 14.2829C148.956 14.2829 148.569 14.3231 148.193 14.4035C147.815 14.4839 147.466 14.6307 147.146 14.8417C146.825 15.0548 146.556 15.3422 146.338 15.706C146.12 16.0698 145.983 16.5261 145.928 17.0768C145.908 17.2195 145.894 17.3964 145.885 17.6095C145.874 17.8225 145.87 18.0436 145.87 18.2748C145.87 18.5059 145.874 18.731 145.885 18.9542C145.894 19.1773 145.908 19.3481 145.928 19.4727C145.983 20.0235 146.12 20.4797 146.338 20.8435C146.556 21.2073 146.823 21.4948 147.146 21.7078C147.466 21.9209 147.817 22.0676 148.193 22.146C148.571 22.2264 148.958 22.2666 149.354 22.2666C149.751 22.2666 150.138 22.2264 150.514 22.146C150.892 22.0656 151.241 21.9189 151.561 21.7078C151.882 21.4948 152.151 21.2073 152.369 20.8435C152.585 20.4797 152.724 20.0235 152.78 19.4727C152.799 19.3481 152.807 19.1753 152.807 18.9542C152.807 18.7331 152.807 18.5059 152.807 18.2748C152.807 18.0436 152.807 17.8225 152.807 17.6095C152.807 17.3964 152.799 17.2175 152.78 17.0768Z" fill="#333333"/>
<path d="M165.62 11.0891C166.205 11.0891 166.729 11.1413 167.193 11.2479C167.654 11.3544 168.061 11.4871 168.411 11.6479C168.759 11.8066 169.059 11.9795 169.302 12.1664C169.548 12.3534 169.747 12.5262 169.896 12.685V7.01886C169.896 6.82389 169.971 6.65505 170.123 6.51234C170.275 6.37165 170.452 6.29929 170.661 6.29929H172.814C173.021 6.29929 173.2 6.36964 173.352 6.51234C173.504 6.65505 173.579 6.82389 173.579 7.01886V24.4716C173.579 24.6665 173.504 24.8354 173.352 24.9781C173.2 25.1208 173.021 25.1911 172.814 25.1911H170.661C170.454 25.1911 170.275 25.1208 170.123 24.9781C169.971 24.8354 169.896 24.6685 169.896 24.4716V23.8605C169.745 24.0193 169.546 24.1922 169.302 24.3791C169.056 24.566 168.759 24.7389 168.411 24.8977C168.061 25.0565 167.654 25.1911 167.193 25.2977C166.729 25.4042 166.205 25.4564 165.62 25.4564C164.675 25.4564 163.82 25.2836 163.057 24.9379C162.292 24.5922 161.64 24.1319 161.102 23.555C160.563 22.9781 160.138 22.3128 159.828 21.5591C159.516 20.8053 159.341 20.0215 159.304 19.2054C159.285 18.9401 159.277 18.6285 159.277 18.2748C159.277 17.921 159.285 17.6095 159.304 17.3442C159.343 16.5281 159.516 15.7442 159.828 14.9905C160.14 14.2367 160.565 13.5714 161.102 12.9945C161.64 12.4177 162.292 11.9574 163.057 11.6117C163.82 11.2619 164.675 11.0891 165.62 11.0891ZM162.985 17.5291C162.929 18.0255 162.929 18.522 162.985 19.0185C163.098 20.1722 163.476 21.0003 164.117 21.5068C164.759 22.0113 165.543 22.2646 166.468 22.2646C167.394 22.2646 168.172 22.0073 168.804 21.4928C169.437 20.9782 169.8 20.2425 169.894 19.2838C169.933 19.0185 169.95 18.6808 169.95 18.2728C169.95 17.8647 169.931 17.5271 169.894 17.2617C169.8 16.3392 169.437 15.6115 168.804 15.0809C168.172 14.5483 167.392 14.2829 166.468 14.2829C165.543 14.2829 164.759 14.5362 164.117 15.0407C163.476 15.5452 163.098 16.3753 162.985 17.5291Z" fill="#333333"/>
<path d="M176.663 18.2728C176.663 17.2798 176.823 16.3432 177.144 15.4648C177.464 14.5865 177.928 13.8247 178.531 13.1775C179.136 12.5302 179.866 12.0197 180.726 11.6479C181.585 11.276 182.542 11.0891 183.6 11.0891C184.658 11.0891 185.615 11.272 186.475 11.6338C187.334 11.9976 188.065 12.486 188.67 13.0971C189.274 13.7081 189.74 14.4277 190.072 15.2518C190.401 16.0759 190.567 16.9422 190.567 17.8467V19.0446C190.567 19.2396 190.493 19.4084 190.341 19.5491C190.189 19.6918 190.01 19.7622 189.802 19.7622H180.341C180.341 20.1702 180.431 20.53 180.61 20.8395C180.79 21.1491 181.031 21.4124 181.333 21.6234C181.634 21.8365 181.984 21.9953 182.38 22.1018C182.777 22.2083 183.181 22.2606 183.598 22.2606C184.203 22.2606 184.692 22.2023 185.071 22.0877C185.449 21.9732 185.759 21.8264 186.004 21.6495C186.212 21.5068 186.383 21.4104 186.515 21.3561C186.648 21.3038 186.827 21.2757 187.054 21.2757H189.319C189.527 21.2757 189.71 21.346 189.871 21.4887C190.031 21.6315 190.101 21.7983 190.082 21.9933C190.063 22.2425 189.918 22.5621 189.644 22.952C189.371 23.342 188.96 23.7239 188.411 24.0957C187.864 24.4675 187.188 24.7871 186.385 25.0525C185.581 25.3178 184.652 25.4524 183.594 25.4524C182.536 25.4524 181.578 25.2796 180.719 24.9339C179.86 24.5881 179.127 24.0957 178.524 23.4565C177.92 22.8173 177.458 22.0596 177.137 21.1812C176.823 20.3089 176.663 19.3381 176.663 18.2728ZM183.602 14.2829C183.055 14.2829 182.587 14.3593 182.2 14.5101C181.813 14.6608 181.486 14.8558 181.224 15.095C180.959 15.3342 180.756 15.6015 180.614 15.8929C180.473 16.1864 180.384 16.4658 180.345 16.7311H186.746C186.708 16.4658 186.637 16.1864 186.534 15.8929C186.43 15.5995 186.261 15.3342 186.024 15.095C185.786 14.8558 185.477 14.6608 185.09 14.5101C184.703 14.3573 184.207 14.2829 183.602 14.2829Z" fill="#333333"/>
<path d="M191.593 28.3368C191.42 28.3368 191.271 28.2664 191.147 28.1237C191.02 27.981 190.958 27.8122 190.958 27.6172V25.8605C190.958 25.6655 191.02 25.4967 191.147 25.354C191.273 25.2133 191.42 25.1409 191.593 25.1409H205.365C205.538 25.1409 205.686 25.2112 205.812 25.354C205.938 25.4967 206 25.6655 206 25.8605V27.6172C206 27.8122 205.938 27.981 205.812 28.1237C205.686 28.2644 205.536 28.3368 205.365 28.3368H191.593Z" fill="#333333"/>
<path d="M63.5259 24.5177C63.5259 24.7127 63.4511 24.8815 63.2994 25.0243C63.1476 25.167 62.9681 25.2373 62.7608 25.2373H60.6086C60.4013 25.2373 60.2218 25.167 60.07 25.0243C59.9183 24.8815 59.8435 24.7147 59.8435 24.5177V12.1201C59.8435 11.9252 59.9183 11.7563 60.07 11.6136C60.2218 11.4709 60.3992 11.4006 60.6086 11.4006H62.7608C62.9681 11.4006 63.1476 11.4709 63.2994 11.6136C63.4511 11.7563 63.5259 11.9252 63.5259 12.1201V24.5177Z" fill="#333333"/>
<path d="M61.6858 5.95355C60.4804 5.95355 59.5059 6.87211 59.5059 8.00374C59.5059 9.13737 60.4826 10.0539 61.6858 10.0539C62.8912 10.0539 63.8657 9.13536 63.8657 8.00374C63.8657 6.87211 62.889 5.95355 61.6858 5.95355Z" fill="#333333"/>
</svg>
