<svg width="251" height="40" viewBox="0 0 251 40" fill="none" xmlns="http://www.w3.org/2000/svg">
<g clip-path="url(#clip0)">
<path d="M11.1946 1.81806C11.1946 2.82176 12.0001 3.63613 12.9947 3.63613C13.9893 3.63613 14.7948 2.82176 14.7948 1.81806C14.7948 0.814368 13.9893 0 12.9947 0C12.0001 0 11.1946 0.814368 11.1946 1.81806Z" fill="#8975EB"/>
<path d="M31.0064 0C30.0118 0 29.2063 0.814368 29.2063 1.81806C29.2063 2.82176 30.0118 3.63613 31.0064 3.63613C32.001 3.63613 32.8066 2.82176 32.8066 1.81806C32.8066 0.814368 32.001 0 31.0064 0Z" fill="#8975EB"/>
<path d="M40.0095 12.7264C40.0095 11.7227 39.204 10.9084 38.2094 10.9084C37.2148 10.9084 36.4093 10.094 36.4093 9.0903C36.4093 8.0866 35.6038 7.27224 34.6092 7.27224H32.809H31.0089C30.0143 7.27224 29.2088 6.45787 29.2088 5.45417C29.2088 4.45048 28.4033 3.63611 27.4087 3.63611C26.4141 3.63611 25.6085 4.45048 25.6085 5.45417C25.6085 6.45787 24.803 7.27224 23.8084 7.27224H22.0083H20.2082C19.2136 7.27224 18.408 6.45787 18.408 5.45417C18.408 4.45048 17.6025 3.63611 16.6079 3.63611C15.6133 3.63611 14.8078 4.45048 14.8078 5.45417C14.8078 6.45787 14.0023 7.27224 13.0077 7.27224H11.2075H9.40742C8.41282 7.27224 7.6073 8.0866 7.6073 9.0903C7.6073 10.094 6.80178 10.9084 5.80717 10.9084C4.81257 10.9084 4.00705 11.7227 4.00705 12.7264C4.00705 13.7301 3.20153 14.5445 2.20693 14.5445C1.19419 14.5471 0.388672 15.3589 0.388672 16.3651V18.1832V21.8193V25.4555V29.0916V30.9097C0.388672 31.9134 1.19419 32.7277 2.1888 32.7277C3.1834 32.7277 3.98892 33.5421 3.98892 34.5458C3.98892 35.5495 4.79444 36.3638 5.78904 36.3638C6.78364 36.3638 7.58917 37.1782 7.58917 38.1819C7.58917 39.1856 8.39469 40 9.38929 40C10.3839 40 11.1894 39.1856 11.1894 38.1819C11.1894 37.1782 11.9949 36.3638 12.9895 36.3638H14.7897H18.3925H21.9953H25.5982H29.201H31.0011C31.9957 36.3638 32.8013 37.1782 32.8013 38.1819C32.8013 39.1856 33.6068 40 34.6014 40C35.596 40 36.4015 39.1856 36.4015 38.1819C36.4015 37.1782 37.207 36.3638 38.2016 36.3638C39.1962 36.3638 40.0018 35.5495 40.0018 34.5458C40.0018 33.5421 40.8073 32.7277 41.8019 32.7277C42.7965 32.7277 43.602 31.9134 43.602 30.9097V29.0916V25.4555V21.8193V18.1832V16.3651C43.602 15.3615 42.7965 14.5471 41.8019 14.5471C40.8176 14.5471 40.0095 13.7327 40.0095 12.7264ZM40.0095 21.8193V25.4555V27.2735C40.0095 28.2772 39.204 29.0916 38.2094 29.0916C37.2148 29.0916 36.4093 29.906 36.4093 30.9097C36.4093 31.9134 35.6038 32.7277 34.6092 32.7277H32.809H29.2062H25.6034H22.0005H18.3977H14.7974H11.1946H9.39447C8.39987 32.7277 7.59435 31.9134 7.59435 30.9097C7.59435 29.906 6.78883 29.0916 5.79422 29.0916C4.79962 29.0916 3.9941 28.2772 3.9941 27.2735V25.4555V21.8193V20.0013C3.9941 18.9976 4.79962 18.1832 5.79422 18.1832C6.78883 18.1832 7.59435 17.3688 7.59435 16.3651C7.59435 15.3615 8.39987 14.5471 9.39447 14.5471C10.3891 14.5471 11.1946 13.7327 11.1946 12.729C11.1946 11.7253 12.0001 10.911 12.9947 10.911H14.7948H18.3977H22.0005H25.6034H29.2062H31.0063C32.0009 10.911 32.8064 11.7253 32.8064 12.729C32.8064 13.7327 33.612 14.5471 34.6066 14.5471C35.6012 14.5471 36.4067 15.3615 36.4067 16.3651C36.4067 17.3688 37.2122 18.1832 38.2068 18.1832C39.2014 18.1832 40.0069 18.9976 40.0069 20.0013V21.8193H40.0095Z" fill="#8975EB"/>
<path d="M34.6066 18.9094C33.6119 18.9094 32.8064 18.095 32.8064 17.0913C32.8064 16.0877 32.0009 15.2733 31.0063 15.2733H29.2062H25.6033H22.0005H18.3977H14.7974H12.9973C12.0027 15.2733 11.1972 16.0877 11.1972 17.0913C11.1972 18.095 10.3916 18.9094 9.39705 18.9094C8.40245 18.9094 7.59692 19.7238 7.59692 20.7275V22.5455V24.3636C7.59692 25.3673 8.40245 26.1817 9.39705 26.1817C10.3916 26.1817 11.1972 26.996 11.1972 27.9997C11.1972 29.0034 12.0027 29.8178 12.9973 29.8178H14.7974H18.4003H22.0031H25.6059H29.2088H31.0089C32.0035 29.8178 32.809 29.0034 32.809 27.9997C32.809 26.996 33.6145 26.1817 34.6091 26.1817C35.6037 26.1817 36.4093 25.3673 36.4093 24.3636V22.5455V20.7275C36.4093 19.7238 35.6012 18.9094 34.6066 18.9094ZM18.3977 22.5455V24.3636C18.3977 25.3673 17.5921 26.1817 16.5975 26.1817C15.6029 26.1817 14.7974 25.3673 14.7974 24.3636V22.5455V20.7275C14.7974 19.7238 15.6029 18.9094 16.5975 18.9094C17.5921 18.9094 18.3977 19.7238 18.3977 20.7275V22.5455ZM29.2036 22.5455V24.3636C29.2036 25.3673 28.3981 26.1817 27.4035 26.1817C26.4089 26.1817 25.6033 25.3673 25.6033 24.3636V22.5455V20.7275C25.6033 19.7238 26.4089 18.9094 27.4035 18.9094C28.3981 18.9094 29.2036 19.7238 29.2036 20.7275V22.5455Z" fill="#8975EB"/>
<path d="M64.0742 27.4499C64.0742 27.1983 63.9939 26.9934 63.8333 26.8326C63.6727 26.6718 63.393 26.524 62.9915 26.3865C62.59 26.2491 62.0591 26.1116 61.396 25.9742C60.7329 25.8367 59.886 25.6552 58.8551 25.4243C57.8476 25.1961 57.0135 24.9082 56.3479 24.5659C55.6848 24.2235 55.1513 23.8215 54.7524 23.3651C54.3509 22.9086 54.0712 22.3873 53.9106 21.8038C53.75 21.2202 53.6697 20.5848 53.6697 19.8975C53.6697 19.2103 53.8303 18.5359 54.1515 17.872C54.4726 17.208 54.9363 16.6193 55.5424 16.1032C56.1484 15.5871 56.8866 15.1721 57.7569 14.8505C58.6272 14.5315 59.6218 14.3707 60.7433 14.3707C61.8648 14.3707 62.8646 14.4978 63.7478 14.7494C64.6285 15.001 65.3796 15.3329 65.996 15.7453C66.6151 16.1577 67.0942 16.6323 67.4387 17.1691C67.7832 17.706 67.9775 18.2506 68.0215 18.8005C68.0448 19.052 67.9593 19.2699 67.7651 19.4515C67.5708 19.6356 67.3481 19.7264 67.0968 19.7264H64.4523C64.1078 19.7264 63.8514 19.6641 63.6805 19.537C63.5095 19.4125 63.3205 19.2673 63.1132 19.1091C62.906 18.9483 62.6315 18.8057 62.2896 18.6812C61.9451 18.5567 61.4323 18.4918 60.7459 18.4918C60.0595 18.4918 59.4534 18.5956 58.9276 18.8005C58.4018 19.0054 58.1377 19.3736 58.1377 19.9001C58.1377 20.1517 58.1998 20.3644 58.3267 20.5355C58.4511 20.7067 58.6919 20.8623 59.0468 20.9998C59.4016 21.1372 59.8937 21.2799 60.5231 21.4277C61.1525 21.5756 61.971 21.7545 62.9786 21.9594C65.0144 22.3951 66.4519 23.0746 67.2859 24.0031C68.1199 24.929 68.5395 26.0805 68.5395 27.4525C68.5395 28.1398 68.3686 28.8089 68.0241 29.4599C67.6796 30.1134 67.1823 30.697 66.5296 31.2105C65.8769 31.7266 65.0765 32.1364 64.126 32.4476C63.1754 32.7563 62.1057 32.9119 60.9168 32.9119C59.7047 32.9119 58.6349 32.7692 57.7077 32.4839C56.7804 32.1986 55.9956 31.8252 55.3559 31.3687C54.7161 30.9123 54.224 30.3961 53.8795 29.823C53.535 29.2524 53.3537 28.6896 53.3304 28.1398C53.3071 27.8882 53.3926 27.6703 53.5868 27.4888C53.7811 27.3047 54.0038 27.2139 54.2551 27.2139H56.8996C57.2441 27.2139 57.5005 27.2943 57.6714 27.4551C57.8424 27.6159 58.0366 27.7974 58.2542 28.0049C58.4718 28.2098 58.7748 28.3939 59.1633 28.5547C59.5518 28.7155 60.1346 28.7959 60.9142 28.7959C61.2587 28.7959 61.611 28.7726 61.9788 28.7259C62.344 28.6792 62.6833 28.6066 62.9915 28.5029C63.2997 28.3991 63.5587 28.2617 63.7634 28.0905C63.9706 27.9115 64.0742 27.7015 64.0742 27.4499Z" fill="#8975EB"/>
<path d="M86.2197 16.5104C86.7688 15.8465 87.4319 15.3381 88.2115 14.9828C88.9886 14.6275 89.8018 14.4511 90.6488 14.4511C92.0915 14.4511 93.27 14.7209 94.1843 15.2577C95.0986 15.7946 95.8212 16.5 96.347 17.3689C96.6449 16.9124 97.0101 16.5 97.4452 16.1317C97.8804 15.7661 98.344 15.4574 98.8361 15.2059C99.3282 14.9543 99.8359 14.765 100.364 14.6405C100.89 14.516 101.406 14.4511 101.908 14.4511C103.213 14.4511 104.299 14.669 105.169 15.1021C106.039 15.5378 106.741 16.1214 107.28 16.8528C107.816 17.5867 108.194 18.4374 108.412 19.41C108.629 20.3825 108.738 21.407 108.738 22.4833V31.7189C108.738 31.9704 108.647 32.1883 108.464 32.3724C108.28 32.5566 108.062 32.6473 107.811 32.6473H105.203C104.951 32.6473 104.734 32.5566 104.55 32.3724C104.366 32.1883 104.275 31.973 104.275 31.7189V22.6571C104.275 21.101 103.977 20.0143 103.382 19.397C102.786 18.7797 101.952 18.4711 100.875 18.4711C99.9576 18.4711 99.1754 18.7694 98.5227 19.3633C97.87 19.9598 97.5203 20.9998 97.4763 22.4885V31.724C97.4763 31.9756 97.3857 32.1935 97.2018 32.3776C97.0179 32.5618 96.8003 32.6525 96.5491 32.6525H93.9434C93.6922 32.6525 93.4746 32.5618 93.2907 32.3776C93.1068 32.1935 93.0162 31.9782 93.0162 31.724V22.6571C93.0162 21.101 92.7183 20.0143 92.1226 19.397C91.5269 18.7797 90.6928 18.4711 89.6154 18.4711C88.6777 18.4711 87.8748 18.7849 87.2117 19.4152C86.5487 20.0454 86.2171 21.1269 86.2171 22.6597V31.7215C86.2171 31.973 86.1265 32.1909 85.9426 32.375C85.7587 32.5592 85.5411 32.6499 85.2899 32.6499H82.6816C82.4304 32.6499 82.2128 32.5592 82.0289 32.375C81.845 32.1909 81.7544 31.9756 81.7544 31.7215V15.722C81.7544 15.4704 81.845 15.2525 82.0289 15.0684C82.2128 14.8843 82.4278 14.7935 82.6816 14.7935H85.2899C85.5411 14.7935 85.7587 14.8843 85.9426 15.0684C86.1265 15.2525 86.2171 15.4704 86.2171 15.722V16.5104H86.2197Z" fill="#8975EB"/>
<path d="M122.973 33.0701C122.263 33.0701 121.629 33.0027 121.067 32.8652C120.505 32.7278 120.013 32.5566 119.591 32.3491C119.166 32.1442 118.806 31.9212 118.51 31.68C118.213 31.4388 117.972 31.2157 117.79 31.0108V38.322C117.79 38.5736 117.7 38.7914 117.516 38.9756C117.332 39.1571 117.114 39.2505 116.863 39.2505H114.255C114.004 39.2505 113.786 39.1597 113.602 38.9756C113.418 38.7914 113.328 38.5736 113.328 38.322V15.8024C113.328 15.5508 113.418 15.333 113.602 15.1488C113.786 14.9647 114.001 14.8739 114.255 14.8739H116.863C117.114 14.8739 117.332 14.9647 117.516 15.1488C117.7 15.333 117.79 15.5508 117.79 15.8024V16.5908C117.974 16.3859 118.213 16.1629 118.51 15.9217C118.808 15.6805 119.168 15.4574 119.591 15.2526C120.013 15.0477 120.505 14.8739 121.067 14.7364C121.626 14.599 122.263 14.5316 122.973 14.5316C124.118 14.5316 125.154 14.7546 126.079 15.2007C127.006 15.6468 127.796 16.2433 128.449 16.985C129.101 17.7294 129.617 18.5878 129.992 19.5604C130.371 20.533 130.58 21.5471 130.627 22.5974C130.65 22.9398 130.661 23.3418 130.661 23.7982C130.661 24.2573 130.648 24.6567 130.627 24.999C130.58 26.052 130.371 27.0635 129.992 28.0361C129.614 29.0086 129.099 29.8671 128.449 30.6114C127.796 31.3558 127.006 31.9497 126.079 32.3958C125.154 32.8471 124.118 33.0701 122.973 33.0701ZM126.167 24.763C126.234 24.1224 126.234 23.4818 126.167 22.8412C126.029 21.3551 125.571 20.284 124.794 19.6304C124.014 18.9795 123.066 18.6527 121.945 18.6527C120.823 18.6527 119.878 18.9846 119.114 19.6486C118.347 20.3125 117.907 21.2618 117.793 22.4989C117.746 22.8412 117.726 23.2769 117.726 23.8034C117.726 24.3299 117.749 24.7656 117.793 25.108C117.907 26.2984 118.347 27.2373 119.114 27.9219C119.881 28.6092 120.823 28.9516 121.945 28.9516C123.066 28.9516 124.017 28.6248 124.794 27.9738C125.571 27.3202 126.029 26.2517 126.167 24.763Z" fill="#8975EB"/>
<path d="M139.226 31.8018C139.226 32.0534 139.135 32.2712 138.952 32.4554C138.768 32.6395 138.55 32.7303 138.299 32.7303H135.691C135.439 32.7303 135.222 32.6395 135.038 32.4554C134.854 32.2712 134.763 32.056 134.763 31.8018V9.27962C134.763 9.02805 134.854 8.81019 135.038 8.62605C135.222 8.4445 135.437 8.35114 135.691 8.35114H138.299C138.55 8.35114 138.768 8.44191 138.952 8.62605C139.135 8.81019 139.226 9.02805 139.226 9.27962V31.8018Z" fill="#8975EB"/>
<path d="M145.95 7.62238C144.489 7.62238 143.308 8.80762 143.308 10.2678C143.308 11.7305 144.492 12.9132 145.95 12.9132C147.411 12.9132 148.592 11.7279 148.592 10.2678C148.594 8.80762 147.411 7.62238 145.95 7.62238Z" fill="#8975EB"/>
<path d="M148.183 31.5762C148.183 31.8278 148.092 32.0456 147.908 32.2298C147.724 32.4139 147.507 32.5047 147.255 32.5047H144.647C144.396 32.5047 144.178 32.4139 143.995 32.2298C143.811 32.0456 143.72 31.8303 143.72 31.5762V15.5793C143.72 15.3277 143.811 15.1099 143.995 14.9257C144.178 14.7416 144.393 14.6508 144.647 14.6508H147.255C147.507 14.6508 147.724 14.7416 147.908 14.9257C148.092 15.1099 148.183 15.3277 148.183 15.5793V31.5762Z" fill="#8975EB"/>
<path d="M156.867 22.3769C156.821 22.7193 156.8 23.1213 156.8 23.5777C156.8 24.0368 156.823 24.4362 156.867 24.7786C156.935 25.4892 157.095 26.0961 157.349 26.5966C157.6 27.0998 157.916 27.5069 158.295 27.8156C158.673 28.1242 159.09 28.3524 159.548 28.5029C160.007 28.6533 160.475 28.7259 160.955 28.7259C161.527 28.7259 162.006 28.6792 162.397 28.5884C162.786 28.4977 163.117 28.3654 163.392 28.1942C163.667 28.0231 163.902 27.8285 164.096 27.6107C164.291 27.3928 164.48 27.1464 164.664 26.8715C164.801 26.6666 164.962 26.4592 165.145 26.2543C165.329 26.0494 165.547 25.9456 165.798 25.9456H168.406C168.658 25.9456 168.88 26.0364 169.075 26.2206C169.269 26.4047 169.354 26.6226 169.331 26.8741C169.308 27.3539 169.137 27.9375 168.816 28.6248C168.494 29.312 167.997 29.9682 167.321 30.5984C166.645 31.2287 165.783 31.7603 164.728 32.196C163.674 32.6292 162.415 32.847 160.952 32.847C159.693 32.847 158.561 32.6344 157.554 32.2116C156.546 31.7889 155.671 31.2157 154.928 30.4947C154.184 29.7737 153.599 28.9386 153.177 27.9893C152.752 27.0401 152.495 26.039 152.405 24.986C152.358 24.5737 152.337 24.1172 152.337 23.6141C152.337 23.1109 152.361 22.6415 152.405 22.2058C152.475 21.1528 152.726 20.1465 153.161 19.1843C153.596 18.2221 154.179 17.3818 154.912 16.6608C155.645 15.9398 156.52 15.3692 157.538 14.9439C158.556 14.5211 159.696 14.3085 160.955 14.3085C162.418 14.3085 163.677 14.5263 164.731 14.9594C165.783 15.3952 166.648 15.9268 167.324 16.5571C168 17.1873 168.497 17.8435 168.818 18.5307C169.139 19.218 169.31 19.8016 169.334 20.2814C169.357 20.5329 169.271 20.7508 169.077 20.9349C168.883 21.1191 168.66 21.2099 168.409 21.2099H165.793C165.542 21.2099 165.324 21.1061 165.14 20.9012C164.956 20.6963 164.796 20.4889 164.659 20.284C164.475 20.009 164.286 19.7627 164.091 19.5448C163.897 19.327 163.661 19.1324 163.387 18.9613C163.112 18.7901 162.781 18.6578 162.392 18.567C162.004 18.4763 161.522 18.4296 160.949 18.4296C160.468 18.4296 159.999 18.5048 159.543 18.6526C159.085 18.8031 158.668 19.0313 158.289 19.3399C157.911 19.6485 157.598 20.0557 157.344 20.5589C157.095 21.062 156.937 21.6689 156.867 22.3769Z" fill="#8975EB"/>
<path d="M181.39 14.3085C182.649 14.3085 183.789 14.503 184.807 14.892C185.825 15.281 186.705 15.8179 187.451 16.5052C188.195 17.1925 188.79 17.9939 189.236 18.9094C189.681 19.8249 189.94 20.8105 190.008 21.8608C190.031 22.0657 190.041 22.3303 190.041 22.6493C190.041 22.9709 190.041 23.2899 190.041 23.6115C190.041 23.9331 190.041 24.2469 190.041 24.5555C190.041 24.8641 190.028 25.1209 190.008 25.3284C189.917 26.3814 189.653 27.3669 189.218 28.2798C188.783 29.1953 188.192 29.9915 187.449 30.6659C186.705 31.3402 185.822 31.8744 184.804 32.2635C183.786 32.6525 182.647 32.847 181.388 32.847C180.129 32.847 178.989 32.6525 177.971 32.2635C176.954 31.8744 176.07 31.3428 175.327 30.6659C174.584 29.9915 173.993 29.1953 173.558 28.2798C173.123 27.3643 172.859 26.3814 172.768 25.3284C172.745 25.1235 172.726 24.8641 172.716 24.5555C172.703 24.2469 172.698 23.9331 172.698 23.6115C172.698 23.2925 172.703 22.9709 172.716 22.6493C172.726 22.3303 172.745 22.0657 172.768 21.8608C172.838 20.8079 173.094 19.8249 173.54 18.9094C173.985 17.9939 174.581 17.1925 175.324 16.5052C176.068 15.8179 176.948 15.281 177.969 14.892C178.995 14.503 180.132 14.3085 181.39 14.3085ZM185.545 22.0346C185.478 21.3266 185.309 20.7352 185.048 20.2658C184.783 19.7964 184.457 19.4255 184.069 19.1506C183.68 18.8757 183.255 18.6864 182.799 18.5852C182.341 18.4815 181.872 18.4296 181.393 18.4296C180.911 18.4296 180.442 18.4815 179.987 18.5852C179.528 18.6889 179.106 18.8783 178.717 19.1506C178.329 19.4255 178.003 19.7964 177.738 20.2658C177.474 20.7352 177.308 21.324 177.241 22.0346C177.218 22.2187 177.2 22.447 177.189 22.7219C177.176 22.9968 177.171 23.2821 177.171 23.5803C177.171 23.8786 177.176 24.1691 177.189 24.457C177.2 24.7448 177.218 24.9653 177.241 25.1261C177.308 25.8367 177.474 26.4254 177.738 26.8949C178.003 27.3643 178.326 27.7352 178.717 28.0101C179.106 28.285 179.531 28.4743 179.987 28.5755C180.445 28.6792 180.914 28.7311 181.393 28.7311C181.875 28.7311 182.344 28.6792 182.799 28.5755C183.258 28.4717 183.68 28.2824 184.069 28.0101C184.457 27.7352 184.783 27.3643 185.048 26.8949C185.309 26.4254 185.478 25.8367 185.545 25.1261C185.568 24.9653 185.579 24.7422 185.579 24.457C185.579 24.1717 185.579 23.8786 185.579 23.5803C185.579 23.2821 185.579 22.9968 185.579 22.7219C185.579 22.447 185.568 22.2161 185.545 22.0346Z" fill="#8975EB"/>
<path d="M201.106 14.3085C201.816 14.3085 202.451 14.3759 203.013 14.5134C203.572 14.6508 204.064 14.822 204.489 15.0295C204.911 15.2344 205.274 15.4574 205.569 15.6986C205.867 15.9398 206.108 16.1629 206.289 16.3678V9.0566C206.289 8.80502 206.38 8.58717 206.564 8.40303C206.748 8.22148 206.963 8.12811 207.216 8.12811H209.825C210.076 8.12811 210.294 8.21889 210.477 8.40303C210.661 8.58717 210.752 8.80502 210.752 9.0566V31.5762C210.752 31.8278 210.661 32.0456 210.477 32.2298C210.294 32.4139 210.076 32.5047 209.825 32.5047H207.216C206.965 32.5047 206.748 32.4139 206.564 32.2298C206.38 32.0456 206.289 31.8304 206.289 31.5762V30.7878C206.105 30.9927 205.864 31.2157 205.569 31.4569C205.271 31.6981 204.911 31.9212 204.489 32.126C204.064 32.3309 203.572 32.5047 203.013 32.6422C202.451 32.7796 201.816 32.847 201.106 32.847C199.962 32.847 198.926 32.624 198.001 32.1779C197.074 31.7318 196.284 31.1379 195.631 30.3936C194.978 29.6492 194.463 28.7908 194.087 27.8182C193.709 26.8456 193.497 25.8341 193.453 24.7812C193.429 24.4388 193.419 24.0368 193.419 23.5804C193.419 23.1239 193.429 22.7219 193.453 22.3796C193.499 21.3266 193.709 20.3151 194.087 19.3425C194.465 18.37 194.981 17.5115 195.631 16.7672C196.284 16.0228 197.074 15.4289 198.001 14.9828C198.926 14.5315 199.962 14.3085 201.106 14.3085ZM197.913 22.6182C197.845 23.2588 197.845 23.8994 197.913 24.54C198.05 26.0287 198.509 27.0972 199.286 27.7508C200.063 28.4017 201.013 28.7285 202.135 28.7285C203.256 28.7285 204.199 28.3965 204.966 27.7326C205.732 27.0687 206.173 26.1194 206.287 24.8823C206.333 24.54 206.354 24.1043 206.354 23.5778C206.354 23.0513 206.331 22.6156 206.287 22.2732C206.173 21.0828 205.732 20.1439 204.966 19.4592C204.199 18.772 203.254 18.4296 202.135 18.4296C201.013 18.4296 200.063 18.7564 199.286 19.4074C198.509 20.0583 198.05 21.1295 197.913 22.6182Z" fill="#8975EB"/>
<path d="M214.49 23.5777C214.49 22.2965 214.684 21.088 215.072 19.9546C215.461 18.8212 216.023 17.8383 216.753 17.0031C217.486 16.168 218.372 15.5093 219.413 15.0295C220.455 14.5497 221.615 14.3085 222.897 14.3085C224.179 14.3085 225.339 14.5445 226.381 15.0113C227.422 15.4807 228.308 16.111 229.041 16.8994C229.774 17.6878 230.338 18.6163 230.74 19.6797C231.139 20.743 231.341 21.8608 231.341 23.0279V24.5737C231.341 24.8252 231.25 25.0431 231.066 25.2246C230.882 25.4088 230.665 25.4996 230.413 25.4996H218.947C218.947 26.026 219.056 26.4903 219.273 26.8897C219.491 27.2891 219.784 27.6288 220.149 27.9012C220.514 28.1761 220.939 28.381 221.418 28.5184C221.9 28.6559 222.389 28.7233 222.894 28.7233C223.627 28.7233 224.221 28.6481 224.679 28.5003C225.137 28.3524 225.513 28.1631 225.811 27.9349C226.062 27.7507 226.269 27.6262 226.43 27.5562C226.59 27.4888 226.808 27.4525 227.083 27.4525H229.828C230.079 27.4525 230.302 27.5433 230.496 27.7274C230.691 27.9115 230.776 28.1268 230.753 28.3784C230.729 28.7 230.553 29.1123 230.222 29.6155C229.89 30.1186 229.393 30.6114 228.727 31.0912C228.064 31.571 227.246 31.9834 226.272 32.3257C225.298 32.6681 224.171 32.8418 222.889 32.8418C221.607 32.8418 220.447 32.6188 219.406 32.1727C218.364 31.7266 217.476 31.0912 216.745 30.2665C216.012 29.4417 215.453 28.464 215.065 27.3306C214.684 26.205 214.49 24.9523 214.49 23.5777ZM222.9 18.4296C222.237 18.4296 221.669 18.5281 221.2 18.7227C220.732 18.9172 220.335 19.1687 220.017 19.4774C219.696 19.786 219.45 20.1309 219.279 20.507C219.108 20.8857 218.999 21.2462 218.952 21.5885H226.71C226.663 21.2462 226.578 20.8857 226.453 20.507C226.326 20.1284 226.122 19.786 225.834 19.4774C225.547 19.1687 225.171 18.9172 224.702 18.7227C224.233 18.5256 223.633 18.4296 222.9 18.4296Z" fill="#8975EB"/>
<path d="M232.584 36.5636C232.374 36.5636 232.193 36.4728 232.043 36.2887C231.89 36.1045 231.815 35.8867 231.815 35.6351V33.3684C231.815 33.1168 231.89 32.8989 232.043 32.7148C232.195 32.5332 232.374 32.4399 232.584 32.4399H249.275C249.484 32.4399 249.663 32.5307 249.816 32.7148C249.969 32.8989 250.044 33.1168 250.044 33.3684V35.6351C250.044 35.8867 249.969 36.1045 249.816 36.2887C249.663 36.4702 249.482 36.5636 249.275 36.5636H232.584Z" fill="#8975EB"/>
<path d="M77.3768 31.6359C77.3768 31.8874 77.2862 32.1053 77.1023 32.2894C76.9184 32.4736 76.7008 32.5643 76.4496 32.5643H73.8413C73.5901 32.5643 73.3725 32.4736 73.1886 32.2894C73.0047 32.1053 72.9141 31.89 72.9141 31.6359V15.639C72.9141 15.3874 73.0047 15.1695 73.1886 14.9854C73.3725 14.8013 73.5875 14.7105 73.8413 14.7105H76.4496C76.7008 14.7105 76.9184 14.8013 77.1023 14.9854C77.2862 15.1695 77.3768 15.3874 77.3768 15.639V31.6359Z" fill="#8975EB"/>
<path d="M75.1468 7.68204C73.686 7.68204 72.5049 8.86728 72.5049 10.3274C72.5049 11.7902 73.6886 12.9728 75.1468 12.9728C76.6076 12.9728 77.7887 11.7876 77.7887 10.3274C77.7887 8.86728 76.605 7.68204 75.1468 7.68204Z" fill="#8975EB"/>
</g>
<defs>
<clipPath id="clip0">
<rect width="249.655" height="40" fill="white" transform="translate(0.388672)"/>
</clipPath>
</defs>
</svg>
