<svg width="245" height="39" viewBox="0 0 245 39" fill="none" xmlns="http://www.w3.org/2000/svg">
<path d="M10.6045 1.77261C10.6045 2.75122 11.395 3.54522 12.371 3.54522C13.3471 3.54522 14.1376 2.75122 14.1376 1.77261C14.1376 0.794009 13.3471 0 12.371 0C11.395 0 10.6045 0.794009 10.6045 1.77261Z" fill="white"/>
<path d="M30.0467 0C29.0707 0 28.2802 0.794009 28.2802 1.77261C28.2802 2.75122 29.0707 3.54522 30.0467 3.54522C31.0228 3.54522 31.8133 2.75122 31.8133 1.77261C31.8133 0.794009 31.0228 0 30.0467 0Z" fill="white"/>
<path d="M38.8821 12.4082C38.8821 11.4296 38.0916 10.6356 37.1155 10.6356C36.1395 10.6356 35.349 9.84161 35.349 8.863C35.349 7.8844 34.5584 7.09039 33.5824 7.09039H31.8158H30.0493C29.0732 7.09039 28.2827 6.29638 28.2827 5.31778C28.2827 4.33918 27.4922 3.54517 26.5162 3.54517C25.5401 3.54517 24.7496 4.33918 24.7496 5.31778C24.7496 6.29638 23.9591 7.09039 22.983 7.09039H21.2165H19.4499C18.4739 7.09039 17.6834 6.29638 17.6834 5.31778C17.6834 4.33918 16.8929 3.54517 15.9168 3.54517C14.9408 3.54517 14.1503 4.33918 14.1503 5.31778C14.1503 6.29638 13.3598 7.09039 12.3837 7.09039H10.6171H8.85058C7.87453 7.09039 7.08402 7.8844 7.08402 8.863C7.08402 9.84161 6.29352 10.6356 5.31747 10.6356C4.34141 10.6356 3.55091 11.4296 3.55091 12.4082C3.55091 13.3868 2.76041 14.1808 1.78435 14.1808C0.790503 14.1834 0 14.9748 0 15.956V17.7286V21.2738V24.819V28.3643V30.1369C0 31.1155 0.790503 31.9095 1.76656 31.9095C2.74261 31.9095 3.53312 32.7035 3.53312 33.6821C3.53312 34.6607 4.32362 35.4547 5.29967 35.4547C6.27573 35.4547 7.06623 36.2487 7.06623 37.2273C7.06623 38.2059 7.85673 38.9999 8.83279 38.9999C9.80884 38.9999 10.5993 38.2059 10.5993 37.2273C10.5993 36.2487 11.3899 35.4547 12.3659 35.4547H14.1325H17.6681H21.2038H24.7394H28.2751H30.0417C31.0177 35.4547 31.8082 36.2487 31.8082 37.2273C31.8082 38.2059 32.5987 38.9999 33.5748 38.9999C34.5508 38.9999 35.3413 38.2059 35.3413 37.2273C35.3413 36.2487 36.1318 35.4547 37.1079 35.4547C38.0839 35.4547 38.8744 34.6607 38.8744 33.6821C38.8744 32.7035 39.6649 31.9095 40.641 31.9095C41.6171 31.9095 42.4076 31.1155 42.4076 30.1369V28.3643V24.819V21.2738V17.7286V15.956C42.4076 14.9774 41.6171 14.1834 40.641 14.1834C39.6751 14.1834 38.8821 13.3894 38.8821 12.4082ZM38.8821 21.2738V24.819V26.5917C38.8821 27.5703 38.0916 28.3643 37.1155 28.3643C36.1395 28.3643 35.349 29.1583 35.349 30.1369C35.349 31.1155 34.5584 31.9095 33.5824 31.9095H31.8158H28.2802H24.7445H21.2089H17.6732H14.1401H10.6044H8.83787C7.86182 31.9095 7.07132 31.1155 7.07132 30.1369C7.07132 29.1583 6.28081 28.3643 5.30476 28.3643C4.3287 28.3643 3.5382 27.5703 3.5382 26.5917V24.819V21.2738V19.5012C3.5382 18.5226 4.3287 17.7286 5.30476 17.7286C6.28081 17.7286 7.07132 16.9346 7.07132 15.956C7.07132 14.9774 7.86182 14.1834 8.83787 14.1834C9.81393 14.1834 10.6044 13.3894 10.6044 12.4108C10.6044 11.4322 11.3949 10.6381 12.371 10.6381H14.1375H17.6732H21.2089H24.7445H28.2802H30.0467C31.0228 10.6381 31.8133 11.4322 31.8133 12.4108C31.8133 13.3894 32.6038 14.1834 33.5799 14.1834C34.5559 14.1834 35.3464 14.9774 35.3464 15.956C35.3464 16.9346 36.1369 17.7286 37.113 17.7286C38.089 17.7286 38.8795 18.5226 38.8795 19.5012V21.2738H38.8821Z" fill="white"/>
<path d="M33.5799 18.4368C32.6039 18.4368 31.8134 17.6428 31.8134 16.6642C31.8134 15.6856 31.0228 14.8916 30.0468 14.8916H28.2802H24.7446H21.2089H17.6733H14.1401H12.3736C11.3975 14.8916 10.607 15.6856 10.607 16.6642C10.607 17.6428 9.81653 18.4368 8.84047 18.4368C7.86442 18.4368 7.07391 19.2308 7.07391 20.2094V21.9821V23.7547C7.07391 24.7333 7.86442 25.5273 8.84047 25.5273C9.81653 25.5273 10.607 26.3213 10.607 27.2999C10.607 28.2785 11.3975 29.0725 12.3736 29.0725H14.1401H17.6758H21.2115H24.7471H28.2828H30.0493C31.0254 29.0725 31.8159 28.2785 31.8159 27.2999C31.8159 26.3213 32.6064 25.5273 33.5824 25.5273C34.5585 25.5273 35.349 24.7333 35.349 23.7547V21.9821V20.2094C35.349 19.2308 34.556 18.4368 33.5799 18.4368ZM17.6733 21.9821V23.7547C17.6733 24.7333 16.8828 25.5273 15.9067 25.5273C14.9306 25.5273 14.1401 24.7333 14.1401 23.7547V21.9821V20.2094C14.1401 19.2308 14.9306 18.4368 15.9067 18.4368C16.8828 18.4368 17.6733 19.2308 17.6733 20.2094V21.9821ZM28.2777 21.9821V23.7547C28.2777 24.7333 27.4872 25.5273 26.5111 25.5273C25.5351 25.5273 24.7446 24.7333 24.7446 23.7547V21.9821V20.2094C24.7446 19.2308 25.5351 18.4368 26.5111 18.4368C27.4872 18.4368 28.2777 19.2308 28.2777 20.2094V21.9821Z" fill="white"/>
<path d="M62.498 26.7639C62.498 26.5186 62.4192 26.3189 62.2616 26.1621C62.104 26.0053 61.8295 25.8612 61.4356 25.7272C61.0416 25.5931 60.5205 25.4591 59.8698 25.3251C59.2191 25.1911 58.3879 25.0141 57.3763 24.789C56.3875 24.5665 55.5691 24.2858 54.9158 23.952C54.2651 23.6182 53.7415 23.2263 53.3501 22.7812C52.9561 22.3362 52.6816 21.8279 52.524 21.259C52.3664 20.69 52.2876 20.0705 52.2876 19.4004C52.2876 18.7303 52.4452 18.0728 52.7604 17.4255C53.0755 16.7781 53.5305 16.2041 54.1253 15.7009C54.7201 15.1977 55.4445 14.7931 56.2986 14.4795C57.1526 14.1685 58.1287 14.0117 59.2293 14.0117C60.3299 14.0117 61.311 14.1356 62.1778 14.3809C63.042 14.6262 63.7791 14.9499 64.3841 15.3519C64.9915 15.754 65.4618 16.2167 65.7998 16.7402C66.1379 17.2636 66.3285 17.7946 66.3717 18.3307C66.3946 18.576 66.3107 18.7884 66.1201 18.9654C65.9295 19.145 65.7109 19.2335 65.4643 19.2335H62.8691C62.5311 19.2335 62.2794 19.1728 62.1117 19.0489C61.9439 18.9275 61.7584 18.7859 61.555 18.6316C61.3517 18.4749 61.0822 18.3358 60.7467 18.2144C60.4087 18.093 59.9054 18.0298 59.2318 18.0298C58.5582 18.0298 57.9634 18.131 57.4475 18.3307C56.9315 18.5305 56.6722 18.8896 56.6722 19.4029C56.6722 19.6482 56.7332 19.8555 56.8578 20.0224C56.9798 20.1893 57.2162 20.341 57.5644 20.4751C57.9126 20.6091 58.3955 20.7482 59.0132 20.8923C59.6309 21.0364 60.4341 21.2109 61.4228 21.4107C63.4207 21.8355 64.8314 22.498 65.6499 23.4033C66.4683 24.306 66.8801 25.4288 66.8801 26.7664C66.8801 27.4365 66.7124 28.089 66.3743 28.7237C66.0362 29.3609 65.5482 29.9298 64.9077 30.4305C64.2671 30.9337 63.4817 31.3333 62.5489 31.6367C61.616 31.9376 60.5663 32.0893 59.3996 32.0893C58.21 32.0893 57.1602 31.9503 56.2503 31.6721C55.3403 31.394 54.5701 31.0298 53.9423 30.5848C53.3145 30.1397 52.8315 29.6365 52.4935 29.0777C52.1554 28.5214 51.9775 27.9726 51.9546 27.4365C51.9317 27.1913 52.0156 26.9789 52.2062 26.8018C52.3969 26.6223 52.6155 26.5338 52.862 26.5338H55.4572C55.7953 26.5338 56.0469 26.6122 56.2147 26.769C56.3824 26.9258 56.5731 27.1028 56.7866 27.3051C57.0001 27.5048 57.2975 27.6844 57.6788 27.8411C58.06 27.9979 58.6319 28.0763 59.397 28.0763C59.7351 28.0763 60.0808 28.0536 60.4417 28.008C60.8001 27.9625 61.1331 27.8917 61.4356 27.7906C61.738 27.6894 61.9922 27.5554 62.193 27.3885C62.3964 27.214 62.498 27.0092 62.498 26.7639Z" fill="white"/>
<path d="M84.2305 16.0976C84.7693 15.4503 85.42 14.9547 86.1851 14.6082C86.9477 14.2618 87.7458 14.0898 88.577 14.0898C89.9928 14.0898 91.1493 14.3528 92.0465 14.8763C92.9438 15.3997 93.653 16.0875 94.169 16.9346C94.4613 16.4896 94.8197 16.0875 95.2467 15.7284C95.6737 15.3719 96.1287 15.071 96.6116 14.8257C97.0946 14.5804 97.5928 14.3958 98.1113 14.2744C98.6273 14.1531 99.1331 14.0898 99.6262 14.0898C100.907 14.0898 101.972 14.3023 102.826 14.7245C103.68 15.1494 104.369 15.7183 104.898 16.4314C105.424 17.147 105.795 17.9764 106.009 18.9247C106.222 19.873 106.329 20.8718 106.329 21.9212V30.9259C106.329 31.1712 106.24 31.3836 106.06 31.5631C105.879 31.7426 105.666 31.8311 105.419 31.8311H102.859C102.613 31.8311 102.399 31.7426 102.219 31.5631C102.038 31.3836 101.949 31.1737 101.949 30.9259V22.0906C101.949 20.5734 101.657 19.5139 101.073 18.9121C100.488 18.3102 99.6694 18.0093 98.612 18.0093C97.7122 18.0093 96.9446 18.3001 96.3041 18.8792C95.6635 19.4608 95.3204 20.4748 95.2772 21.9263V30.9309C95.2772 31.1762 95.1882 31.3886 95.0077 31.5682C94.8273 31.7477 94.6138 31.8362 94.3672 31.8362H91.8102C91.5636 31.8362 91.3501 31.7477 91.1696 31.5682C90.9891 31.3886 90.9002 31.1787 90.9002 30.9309V22.0906C90.9002 20.5734 90.6079 19.5139 90.0233 18.9121C89.4386 18.3102 88.6202 18.0093 87.5628 18.0093C86.6426 18.0093 85.8547 18.3153 85.204 18.9298C84.5533 19.5442 84.2279 20.5987 84.2279 22.0932V30.9284C84.2279 31.1737 84.139 31.3861 83.9585 31.5656C83.778 31.7452 83.5645 31.8337 83.318 31.8337H80.7584C80.5118 31.8337 80.2983 31.7452 80.1178 31.5656C79.9374 31.3861 79.8484 31.1762 79.8484 30.9284V15.3289C79.8484 15.0836 79.9374 14.8712 80.1178 14.6917C80.2983 14.5121 80.5093 14.4236 80.7584 14.4236H83.318C83.5645 14.4236 83.778 14.5121 83.9585 14.6917C84.139 14.8712 84.2279 15.0836 84.2279 15.3289V16.0976H84.2305Z" fill="white"/>
<path d="M120.299 32.2433C119.602 32.2433 118.98 32.1776 118.428 32.0435C117.876 31.9095 117.394 31.7426 116.979 31.5403C116.562 31.3406 116.209 31.1231 115.919 30.8879C115.627 30.6528 115.391 30.4353 115.213 30.2355V37.3639C115.213 37.6092 115.124 37.8216 114.943 38.0011C114.763 38.1781 114.549 38.2692 114.303 38.2692H111.743C111.497 38.2692 111.283 38.1807 111.103 38.0011C110.922 37.8216 110.833 37.6092 110.833 37.3639V15.4073C110.833 15.162 110.922 14.9496 111.103 14.77C111.283 14.5905 111.494 14.502 111.743 14.502H114.303C114.549 14.502 114.763 14.5905 114.943 14.77C115.124 14.9496 115.213 15.162 115.213 15.4073V16.176C115.393 15.9762 115.627 15.7588 115.919 15.5236C116.212 15.2884 116.565 15.071 116.979 14.8712C117.394 14.6714 117.876 14.502 118.428 14.368C118.977 14.234 119.602 14.1682 120.299 14.1682C121.422 14.1682 122.439 14.3857 123.346 14.8206C124.256 15.2556 125.032 15.8371 125.672 16.5604C126.313 17.2861 126.819 18.1231 127.187 19.0713C127.558 20.0196 127.764 21.0083 127.81 22.0324C127.833 22.3662 127.843 22.7582 127.843 23.2032C127.843 23.6508 127.83 24.0402 127.81 24.374C127.764 25.4007 127.558 26.3868 127.187 27.3351C126.816 28.2834 126.31 29.1204 125.672 29.8461C125.032 30.5718 124.256 31.1509 123.346 31.5858C122.439 32.0258 121.422 32.2433 120.299 32.2433ZM123.433 24.1439C123.499 23.5193 123.499 22.8947 123.433 22.2701C123.298 20.8212 122.848 19.7769 122.086 19.1396C121.321 18.5049 120.39 18.1863 119.29 18.1863C118.189 18.1863 117.261 18.51 116.512 19.1573C115.759 19.8047 115.327 20.7302 115.215 21.9364C115.169 22.2701 115.149 22.695 115.149 23.2083C115.149 23.7216 115.172 24.1464 115.215 24.4802C115.327 25.6409 115.759 26.5563 116.512 27.2238C117.264 27.8939 118.189 28.2277 119.29 28.2277C120.39 28.2277 121.323 27.9091 122.086 27.2744C122.848 26.6372 123.298 25.5954 123.433 24.1439Z" fill="white"/>
<path d="M136.249 31.0068C136.249 31.252 136.16 31.4645 135.979 31.644C135.799 31.8235 135.585 31.912 135.339 31.912H132.779C132.533 31.912 132.319 31.8235 132.139 31.644C131.958 31.4645 131.869 31.2546 131.869 31.0068V9.0476C131.869 8.80232 131.958 8.58991 132.139 8.41037C132.319 8.23337 132.53 8.14233 132.779 8.14233H135.339C135.585 8.14233 135.799 8.23084 135.979 8.41037C136.16 8.58991 136.249 8.80232 136.249 9.0476V31.0068Z" fill="white"/>
<path d="M142.847 7.43188C141.414 7.43188 140.255 8.5875 140.255 10.0111C140.255 11.4373 141.416 12.5904 142.847 12.5904C144.281 12.5904 145.44 11.4348 145.44 10.0111C145.442 8.5875 144.281 7.43188 142.847 7.43188Z" fill="white"/>
<path d="M145.038 30.7869C145.038 31.0322 144.949 31.2446 144.769 31.4241C144.588 31.6037 144.375 31.6922 144.128 31.6922H141.569C141.322 31.6922 141.109 31.6037 140.928 31.4241C140.748 31.2446 140.659 31.0347 140.659 30.7869V15.1899C140.659 14.9447 140.748 14.7322 140.928 14.5527C141.109 14.3732 141.32 14.2847 141.569 14.2847H144.128C144.375 14.2847 144.588 14.3732 144.769 14.5527C144.949 14.7322 145.038 14.9447 145.038 15.1899V30.7869Z" fill="white"/>
<path d="M153.561 21.8177C153.515 22.1515 153.495 22.5434 153.495 22.9885C153.495 23.436 153.518 23.8255 153.561 24.1593C153.627 24.8521 153.785 25.4438 154.034 25.9319C154.28 26.4224 154.59 26.8194 154.961 27.1204C155.333 27.4213 155.742 27.6438 156.192 27.7905C156.642 27.9371 157.102 28.0079 157.572 28.0079C158.134 28.0079 158.604 27.9624 158.988 27.8739C159.369 27.7854 159.694 27.6564 159.964 27.4895C160.233 27.3226 160.464 27.133 160.655 26.9206C160.846 26.7082 161.031 26.4679 161.212 26.1999C161.346 26.0001 161.504 25.7978 161.685 25.5981C161.865 25.3983 162.079 25.2972 162.325 25.2972H164.885C165.131 25.2972 165.35 25.3857 165.54 25.5652C165.731 25.7447 165.815 25.9572 165.792 26.2024C165.769 26.6702 165.601 27.2392 165.286 27.9093C164.971 28.5794 164.483 29.2192 163.82 29.8336C163.156 30.4481 162.31 30.9665 161.275 31.3913C160.241 31.8136 159.005 32.026 157.569 32.026C156.334 32.026 155.223 31.8187 154.234 31.4065C153.246 30.9943 152.387 30.4355 151.657 29.7325C150.928 29.0295 150.353 28.2153 149.939 27.2898C149.522 26.3643 149.27 25.3882 149.181 24.3615C149.136 23.9595 149.115 23.5144 149.115 23.0239C149.115 22.5333 149.138 22.0756 149.181 21.6508C149.25 20.6241 149.497 19.643 149.924 18.7049C150.351 17.7667 150.923 16.9474 151.642 16.2445C152.361 15.5415 153.22 14.9852 154.219 14.5705C155.218 14.1583 156.337 13.9509 157.572 13.9509C159.008 13.9509 160.243 14.1633 161.278 14.5856C162.31 15.0104 163.159 15.5288 163.822 16.1433C164.486 16.7578 164.974 17.3975 165.289 18.0676C165.604 18.7377 165.772 19.3067 165.795 19.7745C165.818 20.0198 165.734 20.2322 165.543 20.4117C165.352 20.5913 165.134 20.6798 164.887 20.6798H162.32C162.073 20.6798 161.86 20.5786 161.679 20.3789C161.499 20.1791 161.341 19.9768 161.207 19.777C161.026 19.509 160.841 19.2688 160.65 19.0564C160.459 18.8439 160.228 18.6543 159.959 18.4874C159.689 18.3205 159.364 18.1915 158.983 18.103C158.601 18.0145 158.129 17.969 157.567 17.969C157.094 17.969 156.634 18.0423 156.187 18.1865C155.737 18.3331 155.327 18.5557 154.956 18.8566C154.585 19.1575 154.278 19.5545 154.029 20.0451C153.785 20.5356 153.63 21.1274 153.561 21.8177Z" fill="white"/>
<path d="M177.627 13.9509C178.862 13.9509 179.981 14.1406 180.979 14.5199C181.978 14.8992 182.843 15.4226 183.575 16.0927C184.304 16.7628 184.889 17.5442 185.326 18.4368C185.763 19.3295 186.017 20.2904 186.083 21.3145C186.106 21.5142 186.116 21.7722 186.116 22.0832C186.116 22.3968 186.116 22.7078 186.116 23.0213C186.116 23.3349 186.116 23.6409 186.116 23.9418C186.116 24.2427 186.104 24.493 186.083 24.6953C185.994 25.722 185.735 26.6829 185.308 27.573C184.881 28.4656 184.302 29.2419 183.572 29.8994C182.843 30.5568 181.976 31.0778 180.977 31.4571C179.978 31.8364 178.86 32.026 177.624 32.026C176.389 32.026 175.271 31.8364 174.272 31.4571C173.273 31.0778 172.406 30.5594 171.676 29.8994C170.947 29.2419 170.367 28.4656 169.94 27.573C169.513 26.6804 169.254 25.722 169.165 24.6953C169.142 24.4956 169.124 24.2427 169.114 23.9418C169.102 23.6409 169.096 23.3349 169.096 23.0213C169.096 22.7103 169.102 22.3968 169.114 22.0832C169.124 21.7722 169.142 21.5142 169.165 21.3145C169.234 20.2878 169.485 19.3295 169.923 18.4368C170.36 17.5442 170.944 16.7628 171.674 16.0927C172.403 15.4226 173.268 14.8992 174.269 14.5199C175.276 14.1406 176.391 13.9509 177.627 13.9509ZM181.704 21.4839C181.638 20.7936 181.473 20.217 181.216 19.7593C180.957 19.3016 180.636 18.94 180.255 18.672C179.874 18.404 179.457 18.2194 179.01 18.1207C178.56 18.0196 178.1 17.969 177.629 17.969C177.157 17.969 176.697 18.0196 176.249 18.1207C175.799 18.2219 175.385 18.4065 175.004 18.672C174.622 18.94 174.302 19.3016 174.043 19.7593C173.784 20.217 173.621 20.791 173.555 21.4839C173.532 21.6634 173.514 21.886 173.504 22.154C173.491 22.422 173.486 22.7002 173.486 22.991C173.486 23.2818 173.491 23.565 173.504 23.8457C173.514 24.1264 173.532 24.3413 173.555 24.4981C173.621 25.191 173.784 25.765 174.043 26.2227C174.302 26.6804 174.62 27.042 175.004 27.31C175.385 27.578 175.802 27.7626 176.249 27.8613C176.699 27.9624 177.159 28.013 177.629 28.013C178.102 28.013 178.562 27.9624 179.01 27.8613C179.459 27.7601 179.874 27.5755 180.255 27.31C180.636 27.042 180.957 26.6804 181.216 26.2227C181.473 25.765 181.638 25.191 181.704 24.4981C181.727 24.3413 181.737 24.1239 181.737 23.8457C181.737 23.5675 181.737 23.2818 181.737 22.991C181.737 22.7002 181.737 22.422 181.737 22.154C181.737 21.886 181.727 21.6609 181.704 21.4839Z" fill="white"/>
<path d="M196.975 13.9509C197.671 13.9509 198.294 14.0167 198.846 14.1507C199.395 14.2847 199.878 14.4516 200.295 14.6539C200.709 14.8537 201.065 15.0711 201.355 15.3063C201.647 15.5415 201.883 15.7589 202.061 15.9587V8.83032C202.061 8.58504 202.15 8.37263 202.331 8.19309C202.511 8.01608 202.722 7.92505 202.971 7.92505H205.531C205.777 7.92505 205.991 8.01355 206.171 8.19309C206.352 8.37263 206.441 8.58504 206.441 8.83032V30.7869C206.441 31.0322 206.352 31.2446 206.171 31.4242C205.991 31.6037 205.777 31.6922 205.531 31.6922H202.971C202.725 31.6922 202.511 31.6037 202.331 31.4242C202.15 31.2446 202.061 31.0348 202.061 30.7869V30.0182C201.881 30.218 201.644 30.4355 201.355 30.6706C201.062 30.9058 200.709 31.1233 200.295 31.323C199.878 31.5228 199.395 31.6922 198.846 31.8262C198.294 31.9603 197.671 32.026 196.975 32.026C195.852 32.026 194.835 31.8085 193.927 31.3736C193.017 30.9387 192.242 30.3596 191.602 29.6339C190.961 28.9081 190.455 28.0711 190.087 27.1229C189.716 26.1746 189.507 25.1884 189.464 24.1618C189.441 23.828 189.431 23.436 189.431 22.991C189.431 22.5459 189.441 22.154 189.464 21.8202C189.51 20.7936 189.716 19.8074 190.087 18.8591C190.458 17.9108 190.964 17.0739 191.602 16.3481C192.242 15.6224 193.017 15.0433 193.927 14.6084C194.835 14.1684 195.852 13.9509 196.975 13.9509ZM193.841 22.0528C193.775 22.6774 193.775 23.302 193.841 23.9266C193.976 25.3781 194.426 26.4199 195.188 27.0571C195.951 27.6918 196.883 28.0104 197.984 28.0104C199.085 28.0104 200.01 27.6868 200.762 27.0394C201.515 26.3921 201.947 25.4666 202.059 24.2604C202.104 23.9266 202.125 23.5018 202.125 22.9885C202.125 22.4751 202.102 22.0503 202.059 21.7165C201.947 20.5559 201.515 19.6405 200.762 18.9729C200.01 18.3028 199.082 17.969 197.984 17.969C196.883 17.969 195.951 18.2876 195.188 18.9223C194.426 19.557 193.976 20.6014 193.841 22.0528Z" fill="white"/>
<path d="M210.109 22.9885C210.109 21.7393 210.299 20.5609 210.68 19.4559C211.062 18.3509 211.613 17.3925 212.33 16.5782C213.049 15.764 213.919 15.1217 214.941 14.6539C215.962 14.1861 217.101 13.9509 218.359 13.9509C219.617 13.9509 220.756 14.181 221.778 14.6362C222.8 15.0939 223.669 15.7084 224.388 16.4771C225.108 17.2458 225.662 18.1511 226.056 19.1878C226.447 20.2246 226.646 21.3145 226.646 22.4524V23.9595C226.646 24.2048 226.557 24.4172 226.376 24.5942C226.196 24.7737 225.982 24.8622 225.736 24.8622H214.483C214.483 25.3756 214.59 25.8282 214.803 26.2176C215.017 26.607 215.304 26.9383 215.662 27.2038C216.021 27.4718 216.438 27.6716 216.908 27.8056C217.381 27.9396 217.861 28.0054 218.357 28.0054C219.076 28.0054 219.658 27.9321 220.108 27.7879C220.558 27.6438 220.926 27.4592 221.219 27.2367C221.465 27.0571 221.669 26.9358 221.826 26.8675C221.984 26.8017 222.197 26.7663 222.467 26.7663H225.161C225.408 26.7663 225.626 26.8548 225.817 27.0344C226.008 27.2139 226.091 27.4238 226.069 27.6691C226.046 27.9826 225.873 28.3847 225.547 28.8753C225.222 29.3658 224.734 29.8463 224.081 30.3141C223.43 30.7819 222.627 31.184 221.671 31.5177C220.716 31.8515 219.61 32.021 218.352 32.021C217.093 32.021 215.955 31.8035 214.933 31.3686C213.911 30.9336 213.039 30.3141 212.322 29.51C211.603 28.7058 211.054 27.7525 210.673 26.6475C210.299 25.55 210.109 24.3287 210.109 22.9885ZM218.362 17.969C217.711 17.969 217.154 18.0651 216.694 18.2548C216.234 18.4444 215.845 18.6897 215.533 18.9906C215.218 19.2915 214.976 19.6278 214.808 19.9945C214.641 20.3637 214.534 20.7152 214.488 21.049H222.101C222.055 20.7152 221.971 20.3637 221.849 19.9945C221.725 19.6253 221.524 19.2915 221.242 18.9906C220.96 18.6897 220.591 18.4444 220.131 18.2548C219.671 18.0626 219.081 17.969 218.362 17.969Z" fill="white"/>
<path d="M227.866 35.6495C227.66 35.6495 227.482 35.561 227.334 35.3815C227.184 35.2019 227.111 34.9895 227.111 34.7442V32.5342C227.111 32.2889 227.184 32.0765 227.334 31.8969C227.484 31.7199 227.66 31.6289 227.866 31.6289H244.245C244.451 31.6289 244.626 31.7174 244.776 31.8969C244.926 32.0765 245 32.2889 245 32.5342V34.7442C245 34.9895 244.926 35.2019 244.776 35.3815C244.626 35.5585 244.448 35.6495 244.245 35.6495H227.866Z" fill="white"/>
<path d="M75.5527 30.8448C75.5527 31.09 75.4638 31.3025 75.2833 31.482C75.1029 31.6615 74.8893 31.75 74.6428 31.75H72.0832C71.8366 31.75 71.6231 31.6615 71.4426 31.482C71.2622 31.3025 71.1732 31.0926 71.1732 30.8448V15.2478C71.1732 15.0025 71.2622 14.7901 71.4426 14.6106C71.6231 14.431 71.8341 14.3425 72.0832 14.3425H74.6428C74.8893 14.3425 75.1029 14.431 75.2833 14.6106C75.4638 14.7901 75.5527 15.0025 75.5527 15.2478V30.8448Z" fill="white"/>
<path d="M73.3643 7.48999C71.9307 7.48999 70.7716 8.6456 70.7716 10.0693C70.7716 11.4954 71.9332 12.6485 73.3643 12.6485C74.7978 12.6485 75.9569 11.4929 75.9569 10.0693C75.9569 8.6456 74.7953 7.48999 73.3643 7.48999Z" fill="white"/>
</svg>
