<svg width="56" height="56" viewBox="0 0 56 56" fill="none" xmlns="http://www.w3.org/2000/svg">
<path d="M34.7095 31.3797L31.9135 30.0975C31.6642 29.9817 31.3703 30.0084 31.1477 30.1687L30.0436 30.9612C29.7052 31.2016 29.2689 31.2283 28.9038 31.0413C28.4497 30.8009 25.1995 27.533 24.9591 27.0878C24.7632 26.7227 24.7988 26.2864 25.0393 25.948L25.8318 24.8438C25.992 24.6212 26.0187 24.3274 25.903 24.0781L24.6208 21.2821C24.4694 20.9526 24.1399 20.7478 23.7837 20.7478H22.8577C22.7419 20.7478 22.6262 20.7656 22.5193 20.8101C20.7918 21.5492 20.8987 23.6952 20.8987 23.6952C20.8987 26.8741 23.5344 29.8125 24.7899 31.0324C25.8852 32.19 28.9572 35.1107 32.3053 35.1107C32.3053 35.1107 34.4423 35.2175 35.1903 33.4901C35.2348 33.3832 35.2527 33.2674 35.2527 33.1517V32.2256C35.2437 31.8605 35.0389 31.5311 34.7095 31.3797Z" fill="white"/>
<path d="M28.3784 12.0388C19.7856 12.0388 12.8045 19.0288 12.8045 27.6127C12.8045 30.3107 13.4991 32.9464 14.8259 35.2794L12.0477 43.9434L20.7206 41.1652C23.0536 42.4831 25.6893 43.1776 28.3873 43.1776C36.9801 43.1776 43.9612 36.1877 43.9612 27.6038C43.9523 19.0288 36.9712 12.0388 28.3784 12.0388ZM28.3784 40.4084C25.9831 40.4084 23.6501 39.7405 21.6199 38.4761L21.0768 38.1377L16.3485 39.6515L17.8623 34.9232L17.5239 34.3801C16.2595 32.3498 15.5916 30.0169 15.5916 27.6216C15.5916 20.5693 21.3261 14.8259 28.3873 14.8259C35.4485 14.8259 41.183 20.5604 41.183 27.6216C41.1652 34.6739 35.4307 40.4084 28.3784 40.4084Z" fill="white"/>
<path d="M38.672 0H17.3191C7.77357 0 0 7.77357 0 17.3191V38.672C0 48.2264 7.77357 55.9911 17.3191 55.9911H38.672C48.2264 55.9911 55.9911 48.2175 55.9911 38.672V17.3191C55.9911 7.77357 48.2264 0 38.672 0ZM53.0615 17.3191V38.672C53.0615 46.6058 46.6058 53.0526 38.6809 53.0526H17.3191C9.38528 53.0526 2.93846 46.5969 2.93846 38.672V17.3191C2.93846 9.38528 9.39418 2.93846 17.3191 2.93846H38.672C46.6058 2.93846 53.0615 9.39418 53.0615 17.3191Z" fill="white"/>
<path d="M34.7095 31.3882L31.9135 30.106C31.6642 29.9902 31.3704 30.017 31.1478 30.1772L30.0436 30.9697C29.7052 31.2102 29.2689 31.2458 28.9038 31.0499C28.4497 30.8095 25.1996 27.5415 24.9592 27.0963C24.7633 26.7312 24.7989 26.2949 25.0393 25.9565L25.8318 24.8524C25.9921 24.6298 26.0188 24.3359 25.9031 24.0866L24.6208 21.2906C24.4694 20.9612 24.14 20.7563 23.7838 20.7563H22.8577C22.742 20.7563 22.6262 20.7742 22.5194 20.8187C20.7919 21.5577 20.8988 23.7037 20.8988 23.7037C20.8988 26.8826 23.5345 29.8211 24.79 31.041C25.8852 32.1985 28.9573 35.1192 32.3053 35.1192C32.3053 35.1192 34.4424 35.2261 35.1904 33.4986C35.2349 33.3917 35.2527 33.276 35.2527 33.1602V32.2342C35.2438 31.8602 35.039 31.5307 34.7095 31.3882Z" fill="white"/>
<path d="M12.0388 43.9522L14.817 35.2882C13.4902 32.9552 12.7957 30.3195 12.7957 27.6215C12.7957 19.0287 19.7857 12.0476 28.3696 12.0476C36.9534 12.0476 43.9434 19.0376 43.9434 27.6215C43.9434 36.2142 36.9534 43.1953 28.3696 43.1953C25.6715 43.1953 23.0358 42.5008 20.7028 41.1829L12.0388 43.9522ZM21.0768 38.1376L21.62 38.476C23.6413 39.7404 25.9832 40.4082 28.3785 40.4082C35.4308 40.4082 41.1741 34.6738 41.1741 27.6126C41.1741 20.5602 35.4397 14.8169 28.3785 14.8169C21.3261 14.8169 15.5828 20.5513 15.5828 27.6126C15.5828 30.0079 16.2506 32.3408 17.515 34.371L17.8534 34.9231L16.3397 39.6514L21.0768 38.1376Z" fill="white"/>
</svg>
