<svg width="56" height="56" viewBox="0 0 56 56" fill="none" xmlns="http://www.w3.org/2000/svg">
<g clip-path="url(#clip0)">
<path d="M34.7095 31.38L31.9135 30.0977C31.6642 29.982 31.3704 30.0087 31.1478 30.1689L30.0436 30.9614C29.7052 31.2019 29.2689 31.2286 28.9038 31.0416C28.4497 30.8012 25.1996 27.5332 24.9592 27.088C24.7633 26.7229 24.7989 26.2866 25.0393 25.9482L25.8318 24.8441C25.9921 24.6215 26.0188 24.3276 25.9031 24.0783L24.6208 21.2823C24.4694 20.9528 24.14 20.748 23.7838 20.748H22.8577C22.742 20.748 22.6262 20.7659 22.5194 20.8104C20.7919 21.5494 20.8988 23.6954 20.8988 23.6954C20.8988 26.8743 23.5345 29.8128 24.79 31.0327C25.8852 32.1903 28.9573 35.1109 32.3053 35.1109C32.3053 35.1109 34.4424 35.2178 35.1904 33.4903C35.2349 33.3834 35.2527 33.2677 35.2527 33.1519V32.2259C35.2438 31.8608 35.039 31.5313 34.7095 31.38Z" fill="#333333"/>
<path d="M28.3783 12.0386C19.7856 12.0386 12.8045 19.0286 12.8045 27.6124C12.8045 30.3105 13.499 32.9462 14.8258 35.2792L12.0476 43.9432L20.7205 41.165C23.0535 42.4828 25.6892 43.1774 28.3872 43.1774C36.98 43.1774 43.9611 36.1874 43.9611 27.6035C43.9522 19.0286 36.9711 12.0386 28.3783 12.0386ZM28.3783 40.4081C25.983 40.4081 23.6501 39.7403 21.6199 38.4758L21.0767 38.1375L16.3485 39.6512L17.8622 34.923L17.5238 34.3798C16.2594 32.3496 15.5916 30.0166 15.5916 27.6213C15.5916 20.569 21.326 14.8257 28.3872 14.8257C35.4485 14.8257 41.1829 20.5601 41.1829 27.6213C41.1651 34.6737 35.4307 40.4081 28.3783 40.4081Z" fill="#333333"/>
<path d="M38.672 0H17.3191C7.77357 0 0 7.77357 0 17.3191V38.672C0 48.2264 7.77357 55.9911 17.3191 55.9911H38.672C48.2264 55.9911 55.9911 48.2175 55.9911 38.672V17.3191C55.9911 7.77357 48.2264 0 38.672 0ZM53.0615 17.3191V38.672C53.0615 46.6058 46.6058 53.0526 38.6809 53.0526H17.3191C9.38528 53.0526 2.93846 46.5969 2.93846 38.672V17.3191C2.93846 9.38528 9.39418 2.93846 17.3191 2.93846H38.672C46.6058 2.93846 53.0615 9.39418 53.0615 17.3191Z" fill="#333333"/>
<path d="M34.7095 31.3882L31.9136 30.106C31.6642 29.9902 31.3704 30.017 31.1478 30.1772L30.0436 30.9697C29.7053 31.2102 29.2689 31.2458 28.9038 31.0499C28.4497 30.8095 25.1996 27.5415 24.9592 27.0963C24.7633 26.7312 24.7989 26.2949 25.0393 25.9565L25.8318 24.8524C25.9921 24.6298 26.0188 24.3359 25.9031 24.0866L24.6208 21.2906C24.4694 20.9612 24.14 20.7563 23.7838 20.7563H22.8577C22.742 20.7563 22.6262 20.7742 22.5194 20.8187C20.7919 21.5577 20.8988 23.7037 20.8988 23.7037C20.8988 26.8826 23.5345 29.8211 24.79 31.041C25.8852 32.1985 28.9573 35.1192 32.3053 35.1192C32.3053 35.1192 34.4424 35.2261 35.1904 33.4986C35.2349 33.3917 35.2527 33.276 35.2527 33.1602V32.2342C35.2438 31.8602 35.039 31.5307 34.7095 31.3882Z" fill="#333333"/>
<path d="M12.0388 43.952L14.817 35.2879C13.4902 32.955 12.7957 30.3193 12.7957 27.6212C12.7957 19.0284 19.7857 12.0474 28.3696 12.0474C36.9534 12.0474 43.9434 19.0373 43.9434 27.6212C43.9434 36.214 36.9534 43.1951 28.3696 43.1951C25.6715 43.1951 23.0358 42.5005 20.7028 41.1827L12.0388 43.952ZM21.0768 38.1374L21.62 38.4757C23.6413 39.7402 25.9832 40.408 28.3785 40.408C35.4308 40.408 41.1741 34.6735 41.1741 27.6123C41.1741 20.56 35.4397 14.8166 28.3785 14.8166C21.3261 14.8166 15.5828 20.5511 15.5828 27.6123C15.5828 30.0076 16.2506 32.3406 17.515 34.3708L17.8534 34.9229L16.3397 39.6511L21.0768 38.1374Z" fill="#333333"/>
</g>
<defs>
<clipPath id="clip0">
<rect width="55.9911" height="56" fill="white"/>
</clipPath>
</defs>
</svg>
